
        <!--?xml version="1.0" standalone="no"?-->
        <!-- Generator: Gravit.io -->
        <svg id="character" xmlns="http://www.w3.org/2000/svg" xmlns:xlink="http://www.w3.org/1999/xlink" style="isolation:isolate" viewBox="0 0 1736.678 1736.678" width="1736.678" height="1736.678" preserveAspectRatio="xMidYMin">
          <defs>
            <clipPath id="_clipPath_ZAkK26mfD6xaShBW42UlzbgiXdc2eAaQ">
              <rect width="1736.678" height="1736.678"></rect>
            </clipPath>
          </defs>
          <g clip-path="url(#_clipPath_ZAkK26mfD6xaShBW42UlzbgiXdc2eAaQ)">
            <path id="background" d=" M 6 868.339 C 6 392.401 392.401 6 868.339 6 C 1344.277 6 1730.678 392.401 1730.678 868.339 C 1730.678 1344.277 1344.277 1730.678 868.339 1730.678 C 392.401 1730.678 6 1344.277 6 868.339 Z " fill="rgb(255,172,90)" style="fill: rgb(235, 150, 65);"></path>
            <clipPath id="_clipPath_8PKPfzLwoafclpY5tUdm7OnaipIS1TrR">
              <path d=" M 6 868.339 C 6 392.401 392.401 6 868.339 6 C 1344.277 6 1730.678 392.401 1730.678 868.339 C 1730.678 1344.277 1344.277 1730.678 868.339 1730.678 C 392.401 1730.678 6 1344.277 6 868.339 Z " fill="rgb(255,172,90)"></path>
            </clipPath>
            <g clip-path="url(#_clipPath_8PKPfzLwoafclpY5tUdm7OnaipIS1TrR)">
              <g id="avatar">
                <g id="shirt-color">
                  <path d=" M 1367.348 1571.514 C 1226.468 1671.729 1054.233 1730.678 868.339 1730.678 C 686.466 1730.678 517.667 1674.252 378.51 1577.967 L 451.22 1555.46 L 547.348 1533.331 L 630.036 1577.413 L 692.435 1600.722 C 737.63 1614.268 778.449 1624.4 814.893 1631.115 L 891.529 1634.753 L 937.501 1631.712 L 993.997 1617.49 C 1038.859 1603.308 1074.231 1590.366 1100.112 1578.664 L 1184.38 1528.187 L 1205.692 1531.83 C 1286.086 1549.488 1339.962 1562.715 1367.348 1571.514 Z " fill="rgb(197, 144, 199)"></path>
                </g>
                <g id="collar-color">
                  <path d=" M 634.421 1492.433 L 561.731 1500.617 L 547.146 1531.801 L 592.432 1558.756 L 693.198 1603.143 L 796.77 1627.757 L 899.004 1635.393 L 1009.97 1612.889 L 1092.842 1579.793 L 1154.881 1548.111 L 1193.741 1519.776 L 1192.205 1503.58 L 1176.653 1489.805 L 1160.961 1485.521 L 1096.494 1487.956 Q 1121.579 1505.719 1133.481 1516.825 L 1016.773 1573.268 L 906.5 1599.917 L 795.906 1595.966 L 682.411 1564.402 L 598.385 1523.968 L 634.421 1492.433 Z " fill="rgb(255,255,255)"></path>
                </g>
                <g id="neck-color">
                  <path d=" M 706.041 1340.418 L 698.687 1468.942 Q 634.953 1489.006 599.54 1522.458 Q 631.465 1547.257 726.403 1582.225 L 869.244 1602.426 Q 945.326 1600.313 988.258 1583.679 Q 1034.93 1567.023 1085.543 1544.229 Q 1108.079 1533.685 1130.877 1515.374 Q 1092.037 1486.283 1036.838 1466.066 Q 1026.854 1390.851 1026.549 1332.684 L 984.425 1363.903 L 944.486 1388.136 L 911.165 1405.061 L 868.881 1412.629 L 823.147 1402.911 Q 790.544 1387.39 706.041 1340.418 Z " fill="rgb(242,211,196)"></path>
                </g>
                <g id="shirt-lines">
                  <path d=" M 545.538 1529.051 L 544.803 1529.23 Q 541.973 1529.92 540.891 1530.254 Q 540.846 1530.538 541.061 1531.7 Q 541.172 1532.15 541.357 1532.557 Q 541.404 1532.788 542.077 1533.681 Q 542.48 1534.15 542.755 1534.331 L 543.152 1534.627 L 548.917 1538.36 L 549.517 1538.206 Q 548.023 1534.927 545.538 1529.051 Z " fill="rgb(0,0,0)"></path>
                  <path d=" M 1195.084 1524.493 L 1194.344 1525.211 Q 1191.274 1528.185 1186.424 1532.763 L 1186.765 1532.879 L 1198.283 1525.206 Q 1197.981 1525.023 1195.084 1524.493 Z " fill="rgb(0,0,0)"></path>
                  <path d=" M 1195.049 1524.526 L 1194.836 1524.735 L 1192.949 1526.557 Q 1193.373 1526.864 1193.514 1526.923 Q 1194.167 1527.242 1194.648 1527.378 Q 1195.389 1527.55 1196.026 1527.541 Q 1196.577 1527.545 1197.179 1527.392 Q 1198.541 1526.959 1199.422 1526.131 Q 1199.654 1525.899 1199.942 1525.556 Q 1199.895 1525.557 1199.583 1525.493 Q 1199.424 1525.463 1198.394 1525.233 Q 1197.263 1524.962 1196.957 1524.873 L 1196.654 1524.811 L 1196.293 1524.724 L 1196.305 1524.723 Q 1195.762 1524.627 1195.049 1524.526 Z " fill="rgb(0,0,0)"></path>
                  <path d=" M 545.538 1529.051 L 544.89 1529.209 Q 542.395 1529.816 541.463 1530.094 L 541.439 1530.643 Q 541.442 1531.185 541.557 1531.692 Q 541.671 1532.2 541.898 1532.673 Q 542.124 1533.146 542.462 1533.585 L 542.828 1534.016 L 543.25 1534.43 Q 543.425 1534.608 544.354 1535.105 Q 545.105 1535.456 545.894 1535.544 Q 546.811 1535.638 547.704 1535.41 L 548.198 1535.244 Q 547.19 1532.959 545.538 1529.051 Z " fill="rgb(0,0,0)"></path>
                  <path d=" M 1362.915 1574.659 Q 1295.462 1554.498 1186.388 1532.797 L 1193.835 1525.704 L 1195.406 1524.179 L 1195.406 1524.179 Q 1227.296 1528.83 1350.791 1560.824 Q 1362.065 1563.912 1373.053 1567.434 C 1369.692 1569.866 1366.312 1572.274 1362.915 1574.659 Z  M 371.075 1572.765 Q 376.86 1570.867 382.954 1568.925 Q 440.487 1552.034 524.133 1533.505 L 545.453 1528.848 L 545.453 1528.848 L 549.475 1538.113 Q 436.113 1562.567 380.941 1579.643 C 377.636 1577.373 374.347 1575.08 371.075 1572.765 Z " fill-rule="evenodd" fill="rgb(0,0,0)"></path>
                </g>
                <g id="collar-lines">
                  <path d=" M 642.042 1487.948 L 640.895 1488.491 Q 632.543 1492.479 630.085 1493.801 Q 628.168 1494.895 625.14 1496.944 Q 616.059 1503.088 596.991 1517.809 L 580.584 1521.35 Q 590.066 1525.487 594.03 1528.595 L 601.175 1527.043 Q 611.794 1517.877 634.247 1503.216 Q 639.319 1500.004 644.59 1496.901 L 659.827 1490.153 Q 658.056 1489.631 653.974 1488.971 Q 647.708 1488.22 642.042 1487.948 Z " fill="rgb(0,0,0)"></path>
                  <path d=" M 551.957 1527.526 L 541.217 1529.843 L 541.436 1531.919 L 549.417 1538.285 L 561.992 1535.557 Q 559.421 1534.032 559.277 1533.893 Q 557.024 1532.193 556.784 1531.682 Q 556.114 1531.308 555.639 1530.964 Q 554.12 1529.817 553.004 1528.8 Q 552.74 1528.677 552.481 1528.481 Q 552.065 1528.122 551.957 1527.526 Z " fill="rgb(0,0,0)"></path>
                  <path d=" M 513.209 1545.942 L 513.241 1546.01 L 513.354 1546.246 Q 513.39 1546.238 513.393 1546.239 L 513.214 1545.942 L 513.209 1545.942 Z " fill="rgb(0,0,0)"></path>
                  <path d=" M 1083.937 1479.597 L 1083.401 1479.68 Q 1081.336 1479.998 1080.558 1480.044 L 1066.628 1482.433 Q 1078.438 1486.77 1082.737 1488.619 Q 1083.143 1488.509 1090.077 1492.662 Q 1109.973 1504.303 1134.112 1521.939 Q 1136.062 1521.517 1146.238 1514.613 L 1137.323 1512.799 Q 1116.787 1496.839 1104.829 1489.962 Q 1100.363 1487.215 1094.721 1484.111 Q 1092.143 1482.847 1083.937 1479.597 Z " fill="rgb(0,0,0)"></path>
                  <path d=" M 1184.828 1522.473 L 1184.671 1522.608 Q 1183.055 1523.977 1181.875 1524.658 Q 1180.513 1525.493 1177.699 1526.755 L 1173.373 1529.437 Q 1172.495 1530.01 1172.367 1530.161 L 1185.641 1532.886 Q 1189.84 1529.743 1195.444 1526.507 L 1197.365 1525.02 L 1184.828 1522.473 Z " fill="rgb(0,0,0)"></path>
                  <path d=" M 545.808 1525.437 L 545.714 1525.444 Q 538.822 1527.3 543.638 1534.496 L 598.738 1567.309 Q 654.438 1594.228 698.896 1608.998 Q 802.665 1641.621 892.788 1640.062 L 930.835 1636.04 L 976.17 1626.827 Q 1028.028 1611.807 1055.661 1600.737 Q 1094.252 1585.402 1163.791 1547.033 Q 1184.672 1534.254 1197.954 1524.552 L 1195.51 1521.039 L 1198.067 1524.452 L 1199.431 1523.354 Q 1201.005 1516.749 1198.093 1516.466 Q 1195.031 1515.545 1193.15 1516.63 Q 1183.16 1525.169 1121.898 1558.674 Q 1046.002 1595.301 1041.875 1595.575 Q 986.139 1614.957 965.12 1619.15 L 928.92 1626.223 Q 893.537 1630.345 881.548 1630.764 Q 795.518 1630.257 681.242 1593.616 Q 645.753 1582.069 545.808 1525.437 Z " fill="rgb(0,0,0)"></path>
                  <path d=" M 559.38 1496.585 L 555.944 1498.801 Q 549.834 1503.508 551.122 1503.723 L 582.4 1522.504 Q 620.18 1545.105 683.233 1570.186 Q 726.649 1585.814 768.137 1594.733 Q 788.881 1599.193 809.143 1601.976 Q 859.376 1607.464 868.845 1606.549 L 889.151 1606.239 L 926.803 1602.234 Q 974.444 1593.29 994.692 1586.365 Q 1094.654 1550.256 1152.937 1511.035 Q 1176.77 1494.992 1181.116 1491.252 Q 1184.232 1484.366 1176.017 1483.238 Q 1093.493 1540.025 1009.906 1570.362 L 978.201 1580.506 L 947.001 1588.223 L 916.308 1593.514 Q 884.95 1596.972 872.018 1596.979 L 834.654 1594.716 L 799.119 1590.285 Q 763.744 1584.735 729.013 1574.707 Q 694.282 1564.68 660.194 1550.174 L 626.268 1534.55 Q 592.502 1517.806 559.38 1496.585 Z " fill="rgb(0,0,0)"></path>
                  <path d=" M 1078.339 1480.409 L 1073.227 1481.249 Q 1070.336 1482.5 1070.326 1483.88 L 1085.168 1490.217 Q 1113.909 1488.308 1146.267 1489.115 Q 1163.943 1490.199 1174.451 1494.072 Q 1180.546 1496.791 1186.973 1505.913 Q 1188.116 1508.421 1191.346 1524.545 Q 1192.986 1526.961 1194.249 1527.192 L 1195.443 1526.507 Q 1198.316 1524.3 1200.885 1522.141 Q 1198.832 1508.524 1195.936 1501.499 Q 1193.422 1493.207 1175.74 1483.934 Q 1167.991 1481.841 1160.538 1480.609 Q 1147.596 1478.749 1142.367 1478.874 Q 1113.191 1478.631 1078.339 1480.409 Z " fill="rgb(0,0,0)"></path>
                  <path d=" M 602.716 1486.743 L 602.511 1486.755 Q 580.475 1488.221 572.34 1490.36 Q 568.465 1491.524 564.861 1492.975 L 555.944 1498.801 L 551.424 1502.62 Q 543.066 1516.384 541.933 1524.353 Q 541.206 1531.844 541.404 1532.158 L 545.583 1535.502 L 547.834 1535.615 Q 549.318 1534.825 551.05 1532.497 Q 553.872 1517.507 556.492 1511.809 Q 559.423 1506.843 568.458 1502.149 Q 572.537 1500.5 578.767 1499.209 Q 587.744 1497.762 597.538 1497.189 Q 610.172 1496.431 643.382 1497.618 Q 643.473 1497.149 650.112 1494.798 L 653.267 1493.016 L 656.494 1491.95 L 659.834 1490.155 Q 658.694 1489.709 652.692 1488.813 Q 647.43 1488.199 640.053 1487.845 L 637.985 1487.534 Q 611.366 1486.543 602.716 1486.743 Z " fill="rgb(0,0,0)"></path>
                </g>
                <g id="neck-lines">
                  <path d=" M 702.559 1328.319 L 701.978 1328.406 Q 699.715 1328.971 698.476 1332.995 Q 701.442 1371.892 700.543 1394.995 Q 699.808 1417.274 693.968 1466.522 Q 640.622 1486.281 625.685 1496.702 Q 612.14 1505.376 597.369 1517.499 Q 596.086 1522.422 595.798 1528.203 L 601.862 1526.682 Q 624.97 1507.736 641.393 1499.209 Q 657.971 1490.394 700.383 1474.799 Q 702.208 1473.925 702.869 1472.744 Q 710.967 1410.467 710.861 1385.758 Q 710.95 1366.099 708.354 1332.124 Q 708.028 1328.95 702.559 1328.319 Z " fill="rgb(0,0,0)"></path>
                  <path d=" M 1028.272 1324.652 L 1027.657 1324.725 Q 1023.682 1326.33 1023.633 1328.636 Q 1021.371 1360.696 1022.053 1386.819 Q 1022.796 1413.633 1030.888 1469.054 Q 1031.564 1470.227 1033.4 1471.078 Q 1076.036 1486.173 1092.506 1494.661 Q 1103.739 1500.826 1107.84 1503.577 L 1134.435 1522.384 L 1134.257 1510.407 Q 1119.78 1499.219 1109.624 1492.576 Q 1092.848 1481.707 1039.712 1462.724 Q 1033.258 1413.55 1032.246 1391.282 Q 1031.059 1368.192 1033.539 1329.261 Q 1032.717 1324.839 1028.272 1324.652 Z " fill="rgb(0,0,0)"></path>
                  <path d=" M 597.04 1519.212 L 596.335 1522.636 L 595.618 1529.985 Q 676.862 1571.093 701.868 1576.598 Q 714.272 1581.13 766.265 1594.035 Q 786.477 1598.628 805.018 1601.595 Q 841.397 1607.503 873.905 1607.013 Q 881.03 1607.034 911.543 1604.117 L 938.703 1600.014 Q 962.887 1596 999.775 1584.636 Q 1035.145 1573.575 1077.505 1553.27 Q 1112.094 1536.09 1134.428 1522.332 L 1134.221 1510.782 Q 1106.443 1528.84 1073.131 1544.508 Q 1012.932 1571.106 981.203 1579.945 Q 924.09 1596.452 867.158 1596.978 Q 797.12 1593.213 737.568 1577.07 Q 692.882 1563.952 653.832 1547.703 Q 639.482 1542.168 597.04 1519.212 Z " fill="rgb(0,0,0)"></path>
                </g>
                <g id="head" transform="scale(1) translate(0, 0)">
                  <g id="ears"></g>
                  <g id="face-color">
                    <path d=" M 806.237 389.971 Q 818.2 389.312 830.531 389.154 Q 1057.132 390.725 1158.212 499.04 Q 1203.091 539 1238.04 656.086 Q 1268.652 750.721 1260.571 826.791 L 1260.558 826.792 Q 1221.444 1021.929 1200.676 1082.371 Q 1174.522 1169.086 1144.863 1215.239 Q 1098.483 1271.134 981.328 1360.093 Q 907.105 1406.043 879.229 1407.58 Q 876.555 1407.727 874.308 1407.466 Q 812.472 1401.989 733.183 1349.073 Q 619.707 1274.409 581.202 1221.254 Q 544.458 1160.981 504.005 1045.401 Q 482.652 983.656 459.383 852.498 L 459.377 852.498 Q 452.759 806.622 456.668 760.389 Q 460.694 704.034 473.232 651.947 Q 491.495 573.386 538.694 512.175 Q 634.507 399.435 806.237 389.971 Z " fill="rgb(252,235,224)"></path>
                  </g>
                  <g id="rear-hair"></g>
                  <g id="face-lines">
                    <path d=" M 806.237 389.971 Q 818.2 389.312 830.531 389.154 Q 1057.132 390.725 1158.212 499.04 Q 1203.091 539 1238.04 656.086 Q 1268.652 750.721 1260.571 826.791 L 1260.558 826.792 Q 1221.444 1021.929 1200.676 1082.371 Q 1174.522 1169.086 1144.863 1215.239 Q 1098.483 1271.134 981.328 1360.093 Q 907.105 1406.043 879.229 1407.58 Q 876.555 1407.727 874.308 1407.466 Q 812.472 1401.989 733.183 1349.073 Q 619.707 1274.409 581.202 1221.254 Q 544.458 1160.981 504.005 1045.401 Q 482.652 983.656 459.383 852.498 L 459.377 852.498 Q 452.759 806.622 456.668 760.389 Q 460.694 704.034 473.232 651.947 Q 491.495 573.386 538.694 512.175 Q 634.507 399.435 806.237 389.971 Z  M 811.173 379.852 Q 810.485 379.89 809.796 379.93 L 787.303 381.617 Q 696.278 389.506 620.436 430.4 Q 568.681 454.904 515.243 527.393 Q 472.396 594.288 457.615 676.362 Q 438.083 788.983 449.516 844.199 L 449.511 844.199 Q 449.084 845.335 448.992 846.904 L 461.34 922.153 Q 474.424 980.184 495.401 1049.529 Q 545.372 1188.924 574.647 1230.705 Q 637.068 1301.458 736.988 1363.042 Q 823.749 1419.611 876.174 1416.721 Q 876.457 1416.706 876.74 1416.688 Q 895.671 1414.773 916.087 1406.928 Q 948.099 1394.758 986.74 1368.474 Q 1067.7 1313.382 1156.086 1216.196 Q 1180.319 1181.738 1225.058 1032.667 Q 1248.202 947.577 1267.18 838.249 L 1267.166 838.25 Q 1270.154 833.266 1270.621 828.772 L 1271.619 770.556 Q 1266.467 723.139 1254.475 678.349 Q 1229.428 588.019 1209.242 553.235 Q 1179.696 502.633 1165.387 492.072 Q 1107.62 434.081 1029.003 407.956 Q 922.252 373.731 811.173 379.852 Z " fill="rgb(0,0,0)"></path>
                  </g>
                  <g id="mouth"><path d=" M 736.836 1224.426 C 752.043 1222.787 767.25 1221.289 782.456 1219.904 C 792.321 1219.027 802.185 1218.236 812.05 1217.53 C 824.713 1216.625 837.375 1215.918 850.038 1215.41 C 858.687 1215.07 867.308 1214.957 875.957 1215.014 C 879.575 1215.042 883.193 1215.099 886.811 1215.212 C 891.192 1215.353 895.602 1215.523 899.983 1215.721 C 912.278 1216.314 924.573 1217.134 936.812 1218.151 C 957.841 1219.932 978.87 1221.995 999.843 1224.341 C 993.625 1232.567 986.926 1240.396 979.775 1247.801 C 975.026 1252.691 970.023 1257.355 964.823 1261.764 C 960.131 1265.693 955.241 1269.396 950.153 1272.844 C 945.489 1276.01 940.656 1278.921 935.653 1281.55 C 930.933 1284.009 926.071 1286.242 921.125 1288.164 C 916.32 1290.029 911.43 1291.584 906.427 1292.884 C 901.509 1294.156 896.506 1295.117 891.447 1295.796 C 886.331 1296.502 881.186 1296.898 876.014 1296.983 C 870.7 1297.068 865.414 1296.841 860.129 1296.276 C 854.702 1295.711 849.332 1294.778 844.018 1293.563 C 838.393 1292.262 832.853 1290.623 827.426 1288.644 C 821.547 1286.525 815.753 1284.066 810.156 1281.296 C 807.612 1280.024 805.097 1278.723 802.609 1277.338 C 800.009 1275.925 797.437 1274.427 794.921 1272.872 C 786.272 1267.587 778.019 1261.764 770.161 1255.405 C 758.374 1245.823 747.238 1235.506 736.836 1224.426 Z  M 755.322 1231.012 C 764.621 1230.079 773.92 1229.203 783.219 1228.355 C 793.027 1227.479 802.835 1226.687 812.643 1225.981 C 825.221 1225.076 837.799 1224.398 850.377 1223.889 C 858.885 1223.55 867.393 1223.437 875.901 1223.493 C 879.434 1223.522 882.995 1223.578 886.557 1223.691 C 890.881 1223.833 895.234 1224.002 899.587 1224.2 C 911.769 1224.794 923.951 1225.585 936.105 1226.603 C 951.934 1227.959 967.706 1229.457 983.506 1231.097 C 980.34 1234.799 977.062 1238.389 973.67 1241.894 C 969.119 1246.586 964.342 1251.052 959.339 1255.263 C 954.873 1259.023 950.238 1262.556 945.405 1265.835 C 940.995 1268.831 936.416 1271.572 931.724 1274.031 C 927.287 1276.378 922.708 1278.441 918.044 1280.25 C 913.55 1282.002 908.971 1283.472 904.307 1284.659 C 899.7 1285.846 895.036 1286.779 890.316 1287.401 C 885.539 1288.051 880.706 1288.418 875.844 1288.503 C 870.898 1288.588 865.951 1288.362 861.033 1287.853 C 855.946 1287.288 850.914 1286.44 845.94 1285.309 C 840.626 1284.066 835.425 1282.539 830.309 1280.674 C 824.713 1278.639 819.229 1276.321 813.887 1273.692 C 811.485 1272.477 809.082 1271.233 806.708 1269.933 C 804.22 1268.548 801.761 1267.106 799.331 1265.637 C 791.021 1260.549 783.05 1254.924 775.503 1248.819 C 768.522 1243.166 761.794 1237.23 755.322 1231.012 Z " fill-rule="evenodd" fill="rgb(0,0,0)"></path><g class="mouth-color"><path d=" M 745.909 1227.733 Q 830.109 1218.891 875.929 1219.254 Q 916.783 1219.577 991.816 1227.733 Q 940.408 1291.593 875.929 1292.743 Q 811.45 1293.892 745.909 1227.733 Z " fill="rgb(255,255,255)"></path></g></g>
                  <g id="nose"><path d=" M 858.916 1040.83 L 857.203 1080.226 L 855.49 1101.505 L 861.353 1090.504 C 863.11 1076.533 862.315 1059.992 858.916 1040.83 Z " fill="rgb(0,0,0)"></path><path d=" M 843.5 1136.752 Q 832.672 1146.421 833.223 1153.881 Q 833.657 1159.771 841.787 1167.584 Q 847.66 1161.487 852.065 1160.732 C 858.258 1159.671 861.412 1167.355 867.481 1167.584 C 874.151 1167.836 877.909 1158.702 884.61 1160.732 Q 888.388 1161.877 893.174 1167.584 Q 902.948 1160.211 903.451 1153.881 Q 904.125 1145.418 889.748 1136.752 Q 898.139 1147.159 896.6 1153.881 Q 895.993 1156.53 893.174 1160.732 Q 888.415 1154.965 884.61 1153.881 C 877.505 1151.856 874.5 1162.75 867.481 1162.445 C 861.063 1162.166 858.654 1152.902 852.065 1153.881 Q 847.63 1154.54 841.787 1160.732 Q 840.369 1156.351 840.074 1153.881 Q 839.334 1147.684 843.5 1136.752 Z " fill="rgb(0,0,0)"></path><path d=" M 893.426 1167.594 C 888.41 1176.77 878.667 1183 867.481 1183 C 856.37 1183 846.684 1176.855 841.638 1167.781 L 841.823 1167.584 L 841.787 1164.158 L 852.065 1157.307 L 865.493 1164.158 L 870.906 1164.158 L 881.184 1157.307 L 889.748 1162.445 L 893.426 1167.594 Z  M 863.848 1124.125 C 864.514 1124.043 865.187 1123.983 865.866 1123.947 L 863.848 1124.125 Z " fill-rule="evenodd" fill="rgb(0,0,0)" fill-opacity="0.28"></path></g>
                  <g id="eyes"><g id="left-eye"><path d=" M 601.201 919.778 L 601.201 919.778 L 655.565 918.386 L 655.545 918.386 C 673.943 920.994 692.342 923.605 705.066 927.089 C 717.786 930.573 724.867 934.934 731.964 939.305 L 731.898 939.306 C 736.983 958.114 742.016 976.837 736.943 994.652 C 731.86 1012.5 716.623 1029.467 701.32 1046.486 L 701.247 1046.488 L 700.62 1046.565 C 681.037 1048.99 662.157 1048.729 644.816 1049.197 C 630.977 1049.57 614.447 1048.019 604.66 1044.583 C 576.238 1034.604 575.864 1023.284 566.146 1005.022 L 566.136 1005.006 L 538.209 961.651 L 538.209 961.651 L 601.201 919.778 L 601.201 919.778 Z " fill="rgb(255,255,255)"></path><path d=" M 623.236 920.933 L 622.028 921.041 Q 613.887 922.646 612.86 922.243 Q 608.428 933.166 606.258 945.699 Q 604.189 959.686 604.693 968.573 L 605.424 978.495 Q 606.586 988.301 609.334 997.165 Q 614.9 1015.129 625.877 1026.549 Q 631.328 1032.143 637.9 1035.406 L 644.714 1037.971 Q 654.125 1039.698 655.085 1039.185 L 662.099 1038.304 Q 668.979 1036.72 675.127 1032.722 Q 687.513 1024.526 695.879 1009.064 Q 704.241 993.602 707.101 974.073 Q 709.938 953.75 705.825 933.86 L 695.877 930.994 Q 701.287 952.109 698.155 973.216 Q 695.38 991.687 687.885 1005.053 Q 680.393 1018.419 670.242 1025.013 Q 665.231 1028.258 659.942 1029.5 Q 653.062 1030.548 652.526 1030.156 Q 629.218 1027.514 617.96 994.885 Q 612.844 979.091 613.814 958.924 Q 615.345 936.865 623.236 920.933 Z " fill="rgb(0,0,0)"></path><g class="eye-color"><path d=" M 645.236 918.946 L 623.235 920.932 Q 616.222 935.094 614.232 954.097 Q 612.123 971.056 616.899 991.321 Q 628.844 1029.239 654.332 1030.271 Q 673.818 1029.265 687.886 1005.052 Q 689.53 1002.857 694.283 990.091 Q 695.982 984.879 697.101 979.369 Q 700.386 961.031 698.771 947.232 Q 697.928 938.595 695.999 931.007 L 683.197 926.928 Q 671.781 925.502 645.236 918.946 Z " fill="rgb(77, 57, 42)"></path></g><path d=" M 686.33 963.291 C 684.951 987.148 671.166 1007.852 653.612 1006.837 C 636.058 1005.822 624.752 983.667 626.132 959.81 C 627.511 935.953 641.295 915.249 658.849 916.264 C 676.403 917.279 687.709 939.434 686.33 963.291 L 686.33 963.291 Z  M 666.271 997.154 C 674.071 990.917 680.205 978.563 681.105 962.989 L 681.105 962.989 C 682.157 944.789 675.604 930.133 666.578 924.238 C 664.054 922.609 661.341 921.651 658.547 921.489 C 645.74 920.749 632.703 936.833 631.357 960.112 C 630.304 978.314 636.858 992.97 645.886 998.864 C 648.409 1000.493 651.121 1001.451 653.914 1001.612 C 654.995 1001.674 656.076 1001.617 666.271 997.154 Z " fill-rule="evenodd" fill="rgb(0,0,0)"></path><path d=" M 657.284 921.451 C 657.695 921.44 658.108 921.446 658.52 921.469 C 671.302 922.199 682.401 939.671 681.071 962.967 C 679.785 985.513 667.554 1001.317 655.181 1001.651 C 654.77 1001.662 654.357 1001.656 653.945 1001.632 C 641.159 1000.904 630.063 983.429 631.389 960.134 C 632.676 937.588 644.908 921.785 657.284 921.451 Z " fill="rgb(0,0,0)" fill-opacity="0.35"></path><path d=" M 632.564 943.502 C 632.827 943.494 633.092 943.494 633.361 943.503 C 640.316 943.716 645.469 949.083 645.284 955.117 C 645.106 960.918 640.039 965.8 633.467 965.978 C 633.204 965.984 632.938 965.984 632.67 965.976 C 625.716 965.762 620.561 960.396 620.747 954.361 C 620.925 948.559 625.993 943.679 632.564 943.502 Z " fill="rgb(255,255,255)"></path><path d=" M 671.277 984.708 C 671.54 984.7 671.805 984.7 672.074 984.709 C 679.029 984.923 684.182 990.289 683.996 996.323 C 683.818 1002.124 678.751 1007.006 672.18 1007.183 C 671.916 1007.19 671.65 1007.19 671.382 1007.182 C 664.429 1006.967 659.273 1001.603 659.459 995.567 C 659.638 989.765 664.706 984.885 671.277 984.708 Z " fill="rgb(255,255,255)"></path><path d=" M 609.39 902.759 L 607.964 902.843 Q 583.746 904.146 564.872 916.95 Q 544.544 930.698 516.256 962.713 L 588.622 1040.903 Q 554.107 984.498 544.778 962.984 Q 563.284 944.07 574.52 938.257 Q 603.677 921.76 647.97 923.445 Q 668.252 924.032 690.65 930.127 Q 707.046 934.86 734.507 949.531 L 749.185 945.643 Q 719.297 919.236 695.7 913.036 Q 655.781 901.247 609.39 902.759 Z " fill="rgb(0,0,0)"></path><path d=" M 620.353 1048.314 L 621.527 1048.571 Q 628.581 1049.683 643.256 1050.478 Q 650.082 1050.849 655.837 1050.974 Q 658.656 1051.031 661.273 1051.011 L 663.89 1050.969 Q 671.263 1050.792 681.329 1049.805 Q 702.538 1047.717 713.039 1046.287 L 697.868 1044.944 Q 691.352 1044.429 684.438 1044.066 Q 670.005 1043.31 662.82 1043.494 Q 652.783 1043.845 639.957 1045.25 Q 637.063 1045.581 634.622 1045.941 L 632.357 1046.303 Q 629.38 1046.685 627.547 1046.979 Q 624.611 1047.397 622.063 1048.186 Q 621.029 1048.328 620.353 1048.314 Z " fill="rgb(0,0,0)"></path></g><g id="right-eye"><path d=" M 1112.056 919.778 L 1112.056 919.778 L 1057.691 918.386 L 1057.711 918.386 C 1039.313 920.994 1020.915 923.605 1008.191 927.089 C 995.471 930.573 988.39 934.934 981.293 939.305 L 981.359 939.306 C 976.273 958.114 971.24 976.837 976.314 994.652 C 981.397 1012.5 996.634 1029.467 1011.937 1046.486 L 1012.009 1046.488 L 1012.637 1046.565 C 1032.219 1048.99 1051.099 1048.729 1068.441 1049.197 C 1082.279 1049.57 1098.809 1048.019 1108.596 1044.583 C 1137.018 1034.604 1137.393 1023.284 1147.111 1005.022 L 1147.121 1005.006 L 1175.048 961.651 L 1175.048 961.651 L 1112.056 919.778 L 1112.056 919.778 Z " fill="rgb(255,255,255)"></path><path d=" M 1090.021 920.933 L 1091.228 921.041 Q 1099.37 922.646 1100.396 922.243 Q 1104.828 933.166 1106.999 945.699 Q 1109.068 959.686 1108.564 968.573 L 1107.833 978.495 Q 1106.67 988.301 1103.922 997.165 Q 1098.357 1015.129 1087.38 1026.549 Q 1081.929 1032.143 1075.357 1035.406 L 1068.542 1037.971 Q 1059.131 1039.698 1058.171 1039.185 L 1051.158 1038.304 Q 1044.278 1036.72 1038.13 1032.722 Q 1025.744 1024.526 1017.377 1009.064 Q 1009.016 993.602 1006.156 974.073 Q 1003.318 953.75 1007.432 933.86 L 1017.379 930.994 Q 1011.969 952.109 1015.101 973.216 Q 1017.877 991.687 1025.372 1005.053 Q 1032.864 1018.419 1043.015 1025.013 Q 1048.025 1028.258 1053.315 1029.5 Q 1060.195 1030.548 1060.731 1030.156 Q 1084.039 1027.514 1095.297 994.885 Q 1100.412 979.091 1099.442 958.924 Q 1097.911 936.865 1090.021 920.933 Z " fill="rgb(0,0,0)"></path><g class="eye-color"><path d=" M 1068.02 918.946 L 1090.022 920.932 Q 1097.035 935.094 1099.024 954.097 Q 1101.134 971.056 1096.358 991.321 Q 1084.413 1029.239 1058.924 1030.271 Q 1039.438 1029.265 1025.37 1005.052 Q 1023.726 1002.857 1018.973 990.091 Q 1017.274 984.879 1016.155 979.369 Q 1012.871 961.031 1014.485 947.232 Q 1015.328 938.595 1017.257 931.007 L 1030.059 926.928 Q 1041.476 925.502 1068.02 918.946 Z " fill="rgb(77, 57, 42)"></path></g><path d=" M 1026.926 963.291 C 1028.306 987.148 1042.09 1007.852 1059.644 1006.837 C 1077.198 1005.822 1088.504 983.667 1087.125 959.81 C 1085.745 935.953 1071.961 915.249 1054.407 916.264 C 1036.853 917.279 1025.547 939.434 1026.926 963.291 L 1026.926 963.291 Z  M 1046.985 997.154 C 1039.185 990.917 1033.052 978.563 1032.151 962.989 L 1032.151 962.989 C 1031.099 944.789 1037.652 930.133 1046.679 924.238 C 1049.202 922.609 1051.915 921.651 1054.709 921.489 C 1067.516 920.749 1080.554 936.833 1081.9 960.112 C 1082.952 978.314 1076.398 992.97 1067.37 998.864 C 1064.848 1000.493 1062.136 1001.451 1059.342 1001.612 C 1058.262 1001.674 1057.18 1001.617 1046.985 997.154 Z " fill-rule="evenodd" fill="rgb(0,0,0)"></path><path d=" M 1055.973 921.451 C 1055.561 921.44 1055.149 921.446 1054.737 921.469 C 1041.954 922.199 1030.855 939.671 1032.185 962.967 C 1033.472 985.513 1045.702 1001.317 1058.075 1001.651 C 1058.487 1001.662 1058.899 1001.656 1059.311 1001.632 C 1072.098 1000.904 1083.194 983.429 1081.867 960.134 C 1080.58 937.588 1068.348 921.785 1055.973 921.451 Z " fill="rgb(0,0,0)" fill-opacity="0.35"></path><path d=" M 1033.507 942.768 C 1033.77 942.761 1034.035 942.761 1034.304 942.769 C 1041.259 942.983 1046.413 948.35 1046.227 954.383 C 1046.049 960.184 1040.982 965.067 1034.41 965.244 C 1034.147 965.251 1033.881 965.25 1033.613 965.242 C 1026.659 965.028 1021.505 959.663 1021.69 953.628 C 1021.868 947.826 1026.936 942.945 1033.507 942.768 Z " fill="rgb(255,255,255)"></path><path d=" M 1072.22 983.974 C 1072.483 983.967 1072.748 983.967 1073.017 983.975 C 1079.972 984.189 1085.125 989.555 1084.94 995.589 C 1084.761 1001.39 1079.694 1006.272 1073.123 1006.45 C 1072.859 1006.456 1072.594 1006.456 1072.325 1006.448 C 1065.372 1006.234 1060.216 1000.869 1060.402 994.834 C 1060.581 989.032 1065.649 984.151 1072.22 983.974 Z " fill="rgb(255,255,255)"></path><path d=" M 1103.867 902.759 L 1105.293 902.843 Q 1129.51 904.146 1148.385 916.95 Q 1168.713 930.698 1197 962.713 L 1124.634 1040.903 Q 1159.15 984.498 1168.479 962.984 Q 1149.972 944.07 1138.736 938.257 Q 1109.58 921.76 1065.286 923.445 Q 1045.004 924.032 1022.607 930.127 Q 1006.211 934.86 978.75 949.531 L 964.071 945.643 Q 993.96 919.236 1017.556 913.036 Q 1057.476 901.247 1103.867 902.759 Z " fill="rgb(0,0,0)"></path><path d=" M 1092.903 1048.314 L 1091.73 1048.571 Q 1084.675 1049.683 1070 1050.478 Q 1063.174 1050.849 1057.42 1050.974 Q 1054.6 1051.031 1051.983 1051.011 L 1049.366 1050.969 Q 1041.994 1050.792 1031.928 1049.805 Q 1010.718 1047.717 1000.217 1046.287 L 1015.388 1044.944 Q 1021.904 1044.429 1028.819 1044.066 Q 1043.251 1043.31 1050.437 1043.494 Q 1060.473 1043.845 1073.3 1045.25 Q 1076.193 1045.581 1078.634 1045.941 L 1080.9 1046.303 Q 1083.877 1046.685 1085.709 1046.979 Q 1088.645 1047.397 1091.194 1048.186 Q 1092.227 1048.328 1092.903 1048.314 Z " fill="rgb(0,0,0)"></path></g></g>
                  <g id="eyebrows"><g id="brow-color"><path d=" M 545.293 880.653 L 589.72 849.554 C 616.349 844.818 646.011 844.863 678.574 849.554 Q 751.329 864.554 758.542 871.768 C 765.756 878.981 754.382 893.981 740.772 893.981 C 727.161 893.981 652.373 868.764 603.048 871.768 Q 582.525 873.017 545.293 880.653 Z " fill="rgb(51,50,50)"></path><path d=" M 1173.952 880.653 L 1129.525 849.554 C 1102.895 844.818 1073.233 844.863 1040.67 849.554 Q 967.915 864.554 960.702 871.768 C 953.488 878.981 964.862 893.981 978.473 893.981 C 992.083 893.981 1066.871 868.764 1116.196 871.768 Q 1136.719 873.017 1173.952 880.653 Z " fill="rgb(51,50,50)"></path></g></g>
                  <g id="front-hair"><g id="hair-color"><path d=" M 1369.124 1566.191 C 1366.742 1557.692 1364.642 1548.483 1362.805 1538.641 C 1339.626 1478.395 1339.017 1384.597 1354.618 1279.998 C 1366.997 1211.264 1378.397 1119.781 1384.038 1022.728 C 1388.335 973.403 1391.188 926.86 1391.607 886.635 C 1394.949 845.484 1396.421 813.943 1394.62 797.006 C 1380.92 451.314 1192.51 268.961 829.452 250.006 C 725.342 256.258 661.716 279.582 638.605 320.006 C 547.346 297.184 454.629 361.795 360.489 513.872 C 321.554 583.958 303.264 670.853 305.62 774.562 C 301.62 917.006 351.62 1018.006 358.74 1121.116 C 364.639 1206.436 361.871 1276.716 350.44 1331.936 C 336.789 1396.336 313.648 1450.856 281.02 1495.496 C 308.973 1524.036 338.033 1550.108 368.199 1573.712 Q 375.335 1571.353 382.954 1568.925 Q 440.487 1552.034 524.133 1533.505 L 541.461 1529.72 L 541.461 1529.72 L 545.569 1527.109 L 565 1617 L 574.647 1680 L 651 1702 L 648 1639 L 634 1543 L 624.997 1487.088 Q 626.586 1487.138 627.407 1487.164 C 630.658 1487.269 634.185 1487.392 637.985 1487.534 L 640.053 1487.845 Q 640.818 1487.882 641.559 1487.921 Q 659.958 1479.119 693.968 1466.522 Q 699.808 1417.274 700.543 1394.995 Q 701.38 1373.483 698.867 1338.279 L 698.867 1338.279 Q 624.701 1287.44 574.647 1230.705 L 557 1150 C 537.206 1040.906 525.576 967.006 522.082 928.268 L 517 896 L 528 911 L 553 964 L 578 1000 C 539.331 868.913 547.341 742.923 602 622 C 639.393 701.382 681.913 761.477 729.556 802.282 C 778.117 837.8 835.276 859.384 901 867 C 812.375 737.125 779.719 659.135 803 633 C 926.588 771.617 1021.932 834.627 1089 822 C 1043.434 763.591 1046.598 729.138 997 670 C 1051.519 678.161 1087.73 741.794 1135 764 C 1136.11 736.273 1140.453 720.283 1148 716 C 1212 874 1088 1071 1093 1178 L 1130 1139 L 1119 1199 Q 1113.641 1260.874 1111.758 1262.758 C 1085.06 1289.459 1058.893 1313.153 1033.257 1333.84 L 1033.257 1333.84 Q 1031.13 1369.567 1032.246 1391.282 Q 1033.258 1413.55 1039.712 1462.724 Q 1066.209 1472.19 1083.665 1479.639 L 1083.937 1479.597 Q 1084.56 1479.843 1085.151 1480.079 Q 1098.005 1479.487 1110.062 1479.179 Q 1111.066 1479.153 1113.062 1479.106 L 1119 1645 L 1119 1690 L 1176 1671 L 1203 1555 L 1206.047 1526.001 Q 1207.335 1526.247 1208 1526.376 C 1234.076 1531.435 1281.673 1542.918 1350.791 1560.824 Q 1360.054 1563.362 1369.124 1566.191 Z " fill="rgba(87, 71, 63, 1)"></path></g><g id="hair-shadow"><path d=" M 1111.314 1263.202 C 1106.69 1328.853 1109.668 1398.251 1113.112 1479.105 Q 1099.638 1479.412 1085.151 1480.079 Q 1084.56 1479.843 1083.937 1479.597 L 1083.665 1479.639 Q 1066.209 1472.19 1039.712 1462.724 Q 1033.258 1413.55 1032.246 1391.282 Q 1031.13 1369.567 1033.257 1333.84 L 1033.257 1333.84 Q 1071.498 1302.982 1111.314 1263.202 Z  M 624.805 1487.082 C 610.123 1406.724 591.013 1318.91 572.422 1227.433 Q 573.549 1229.138 574.647 1230.705 Q 624.701 1287.44 698.867 1338.279 Q 701.38 1373.483 700.543 1394.995 Q 699.808 1417.274 693.968 1466.522 Q 659.958 1479.119 641.559 1487.921 Q 640.818 1487.882 640.053 1487.845 L 637.985 1487.534 Q 630.727 1487.264 624.805 1487.082 Z  M 1206.081 1526.008 C 1210.697 1464.645 1212.158 1355.211 1218.027 1293.348 C 1215.57 1390.075 1215.054 1468.312 1216.474 1528.087 Q 1210.772 1526.897 1206.081 1526.008 Z  M 480.332 1543.518 C 486.085 1476.538 488.02 1404.715 486.132 1328.041 C 500.205 1367.814 514.805 1410.827 528.192 1461.896 C 533.383 1481.702 538.355 1501.111 542.993 1519.872 Q 542.224 1522.304 541.933 1524.353 Q 541.599 1527.793 541.461 1529.72 L 541.461 1529.72 L 524.133 1533.505 Q 501.256 1538.573 480.332 1543.518 Z  M 556.366 1512.087 L 556.513 1511.773 Q 556.503 1511.791 556.492 1511.809 Q 556.429 1511.945 556.366 1512.087 L 556.366 1512.087 L 556.366 1512.087 L 556.366 1512.087 L 556.366 1512.087 L 556.366 1512.087 Z " fill-rule="evenodd" fill="rgb(0,0,0)" fill-opacity="0.2"></path></g><g id="hair-border"><path d=" M 1368.173 1576.345 L 1375 1572 L 1373.82 1568.07 C 1362.23 1529.08 1353.46 1489.6 1349.58 1449.36 C 1342.86 1379.72 1351.99 1309.6 1365.47 1240.83 C 1381.18 1160.73 1400.4 872.52 1398.62 796.879 L 1398.58 795.831 C 1397.01 757.751 1393.31 719.849 1386.71 682.409 C 1373.94 610.038 1349.96 539.167 1310.57 477.484 C 1266.46 408.414 1202.95 353.361 1130.03 316.76 C 1125.1 314.281 1120.12 311.88 1115.1 309.556 C 1026.72 268.576 928.291 251.297 830.727 246.068 L 830.727 246.068 C 830.297 246.045 829.866 246.022 829.436 246 C 784.856 248.709 739.799 253.883 698.529 269.848 C 674.785 279.033 650.518 293.237 636.68 315.43 C 626.253 313.038 615.592 311.705 604.908 311.553 C 567.028 311.014 531.051 325.731 500.545 346.549 C 445.152 384.351 404.253 438.52 368.157 494.277 C 361.954 503.858 355.905 513.542 350.723 523.704 C 312.095 599.455 300.304 684.269 301.506 768.565 C 301.556 771.705 301.599 775.29 301.599 775.29 C 300.206 829.049 306.863 882.775 317.917 935.454 C 330.311 994.524 348.712 1053.136 354.132 1113.626 C 358.38 1161.026 359.203 1209.126 356.091 1256.926 C 351.989 1319.916 337.568 1384.616 308.642 1442.356 C 299.251 1461.106 288.141 1478.946 275.791 1495.886 L 278.85 1498.996 C 279.6 1499.759 280.351 1500.521 281.103 1501.281 L 286.985 1494.061 C 289.002 1491.219 290.98 1488.35 292.914 1485.446 C 335.186 1421.986 356.741 1346.656 363.143 1269.986 C 367.441 1218.516 366.716 1166.216 362.208 1114.126 C 357.324 1057.706 340.922 1002.8 328.631 947.19 C 316.007 890.077 308.053 831.859 309.621 774.573 C 307.749 689.266 320.423 594.466 363.941 515.896 L 364.44 515.091 C 388.26 476.737 414.212 439.805 444.713 406.624 C 475.389 373.253 511.414 342.372 554.984 327.647 C 583.328 318.068 612.693 317.697 640.571 324.615 L 642.206 321.767 C 652.926 303.249 671.156 290.779 690.483 281.914 C 733.997 261.954 781.512 256.997 828.479 254.073 L 828.479 254.073 C 828.809 254.052 829.139 254.032 829.468 254.012 C 927.836 259.195 1027.77 276.739 1116.93 319.256 C 1177.12 347.956 1231.55 388.698 1273.72 440.211 C 1355.27 539.845 1387 672.934 1390.62 797.133 C 1390.64 797.616 1390.7 800.526 1390.71 800.997 C 1391.77 850.722 1374.51 1154.71 1358.75 1233.58 C 1347.25 1291.11 1338.37 1349.25 1339.26 1407.72 C 1340.09 1462.1 1350.07 1516.01 1365.61 1568.5 L 1365.61 1568.5 L 1368.173 1576.345 Z  M 421.559 1014.006 C 422.54 1077.616 431.184 1141.206 448.393 1202.426 C 464.484 1259.676 486.67 1315.326 505.294 1371.326 C 524.045 1427.716 539.052 1485.576 552.87 1543.596 C 563.012 1586.176 572.897 1629.066 577.611 1672.206 C 577.765 1673.616 577.912 1675.027 578.05 1676.439 C 578.522 1681.255 646.674 1703.33 646.586 1698.253 C 645.548 1638.361 636.622 1578.584 626.4 1518.986 C 608.667 1415.596 585.655 1313.526 564.95 1210.676 C 543.536 1104.296 524.091 998.253 512.279 889.108 L 512.081 887.268 L 511.959 886.115 C 504.492 870.562 498.81 854.183 493.724 837.658 C 493.724 837.658 492.688 834.703 491.574 831.55 C 480.363 799.66 470.707 767.258 463.987 734.225 L 463.842 733.507 L 461.798 723.323 C 464.554 725.158 467.356 726.927 470.063 728.832 C 474.784 732.336 475.953 739.346 477.856 745.966 C 486.26 775.206 492.201 805.216 501.135 834.538 L 501.169 834.646 C 518.512 882.765 538.803 930.284 564.176 974.418 C 566.78 978.949 569.464 983.435 572.286 987.834 C 547.739 896.792 542.35 798.116 567.139 705.315 C 575 675.886 585.682 647.257 598.864 619.651 L 599.195 618.96 L 603.199 610.64 C 634.771 678.761 668.85 746.863 727.325 794.638 C 757.309 819.136 793.022 836.119 830.35 847.622 C 851.419 854.114 872.935 859.059 894.571 863.242 L 894.923 863.31 C 863.427 817.769 832.244 771.606 810.413 721.079 C 800.985 699.258 792.26 676.487 793.412 652.44 C 793.804 644.256 795.733 635.997 800.143 629.019 L 803.199 624.245 L 807.803 629.78 C 844.288 673.514 882.959 714.842 926.529 750.449 C 953.375 772.389 982.11 792.386 1014.15 805.958 C 1035.39 814.956 1057.92 820.943 1081.35 819.832 L 1081.56 819.821 C 1081.32 819.541 1081.07 819.259 1080.83 818.975 C 1062.49 797.351 1052.75 769.949 1039.79 744.678 C 1026.42 718.601 1011.67 692.652 990.436 672.445 L 990.16 672.184 L 982.662 665.127 L 992.854 665.003 C 1011.87 664.903 1029.74 676.143 1045.71 688.216 C 1072.23 708.273 1094.65 733.586 1121.63 752.967 C 1124.77 755.227 1128 757.373 1131.36 759.31 C 1131.36 759.31 1131.48 753.419 1131.82 748.798 C 1132.82 735.105 1135.99 721.023 1145.57 711.4 C 1145.57 711.4 1150.13 706.911 1150.13 706.911 C 1165.7 746.548 1173.05 789.144 1171.11 832.472 C 1168 902.104 1145.69 969.409 1126.62 1034.326 C 1113.51 1079.076 1101.13 1123.656 1095.78 1170.486 L 1095.74 1170.786 C 1137.72 1125.396 1170.37 1071.636 1195.19 1014.566 C 1195.29 1014.326 1195.4 1014.086 1195.5 1013.846 C 1229.75 932.439 1249.11 845.291 1260.57 757.21 C 1260.61 756.889 1260.61 756.89 1260.65 756.569 C 1264.44 723.864 1265.89 690.853 1269.02 658.187 C 1269.41 654.099 1269.15 649.807 1271.84 647.132 L 1279.21 640.397 C 1276.87 678.953 1273.72 717.388 1268.82 755.809 L 1268.66 757.025 C 1268.66 757.025 1268.27 760.231 1267.97 762.757 C 1257.42 849.841 1237.82 936.087 1202.86 1016.986 C 1184.96 1059.516 1162.83 1100.356 1136.29 1137.046 L 1136.28 1137.056 C 1104.19 1252.676 1112.78 1376.376 1117.85 1496.286 C 1120.498 1559.397 1122.551 1622.169 1122.64 1685.25 C 1122.642 1686.67 1171.792 1671.003 1172.13 1669.53 C 1180.274 1633.937 1188.661 1598.372 1197.11 1562.82 L 1198.15 1558.43 L 1199.15 1554.21 C 1207.44 1500.1 1206.49 1320.356 1217.16 1267.156 L 1217.68 1264.606 C 1218.74 1259.316 1220.8 1254.296 1222.53 1249.146 C 1246.08 1179.006 1267.4 1108.056 1282.16 1035.346 C 1288.14 1005.876 1293.24 976.15 1294.47 946.174 L 1302.52 945.22 C 1300.91 989.523 1291.61 1032.876 1281.38 1075.906 C 1266.36 1139.016 1247.37 1201.076 1226.43 1262.586 L 1225.98 1263.896 C 1214.88 1318.866 1215.48 1500.4 1207.01 1555.74 C 1197.825 1594.329 1188.728 1632.816 1179.921 1671.315 C 1149.25 1683 1114.637 1692.934 1114.637 1690.909 C 1114.637 1590.799 1108.673 1492.244 1105.83 1393.286 C 1103.48 1311.386 1104.82 1229.396 1124.82 1149.166 C 1115.14 1161.316 1104.9 1172.996 1094.05 1184.216 L 1085.68 1192.846 L 1086.71 1180.736 C 1092.31 1116.906 1112.59 1053.996 1130.84 991.799 C 1150.44 924.832 1169 855.847 1161.95 786.264 C 1159.73 764.409 1154.9 742.815 1147.44 722.188 L 1147.34 721.932 C 1139.58 734.151 1139.03 749.921 1139.59 765.263 L 1139.88 772.338 C 1132.66 769.054 1125.57 765.465 1119.07 760.954 C 1086.14 738.117 1060.4 705.193 1025.71 684.193 C 1018.88 680.055 1011.67 676.47 1003.95 674.454 L 1003.49 674.339 C 1033.35 706.893 1050.4 750.747 1071.41 789.685 C 1077.37 800.716 1083.48 812.18 1092.95 819.745 L 1100.55 825.749 L 1090.63 827.039 C 1057.06 831.243 1022.6 820.058 993.387 805.042 C 955.09 785.356 921.036 758.025 889.33 728.544 C 859.235 700.561 831.357 670.233 805.004 638.901 L 804.391 638.171 C 798.516 652.542 801.555 668.719 805.451 683.418 C 813.323 713.119 827.675 740.787 842.987 767.738 C 861.118 799.649 881.757 830.144 902.624 860.383 C 903.214 861.239 903.802 862.096 904.389 862.954 C 905.529 864.629 906.82 866.588 906.82 866.588 L 911.973 874.595 C 852.666 863.781 792.343 849.458 741.935 815.459 C 692.836 782.343 657.223 732.496 628.502 679.764 C 619.55 663.327 611.203 646.569 603.218 629.644 L 603.112 629.42 C 567.604 706.428 553.359 792.308 560.591 877.52 C 564.224 920.32 572.877 962.643 585.207 1004.036 L 588.669 1015.616 L 579.255 1009.236 C 576.204 1007.106 575.652 1005.996 574.568 1004.726 C 564.463 992.862 557.194 978.77 549.721 964.846 C 539.956 946.652 531.014 928.035 522.59 909.171 C 539.65 1054.366 569.16 1192.476 597.943 1331.316 C 619.014 1433.056 640.981 1533.856 650.794 1636.476 C 653.043 1660.004 654.537 1683.6 654.67 1707.25 C 654.69 1710.801 570.825 1685.891 570.365 1680.392 C 567.795 1649.697 561.551 1619.37 555.035 1589.136 C 538.177 1510.906 518.136 1433.486 492.489 1358.396 C 466.638 1282.706 436.894 1208.256 423.5 1128.426 C 417.169 1090.686 414.141 1052.496 413.561 1014.226 L 413.539 1014.006 L 421.559 1014.006 Z " fill-rule="evenodd" fill="rgb(0,0,0)"></path></g><g id="hair-shine"><path d=" M 1010.903 431.543 C 1015.851 406.847 1030.73 388.226 1053.947 382.021 C 1098.016 370.242 1155.547 407.625 1182.339 465.448 C 1209.131 523.272 1195.105 579.779 1151.036 591.557 C 1127.035 597.972 1099.042 589.805 1074.196 571.698 C 1068.223 581.794 1059.113 589.116 1047.219 592.295 C 1012.566 601.556 967.328 572.161 946.26 526.692 C 925.192 481.224 936.222 436.79 970.875 427.528 C 983.383 424.185 997.27 425.878 1010.903 431.543 Z  M 873.778 558.682 C 863.063 535.557 868.672 512.959 886.296 508.249 C 903.92 503.538 926.928 518.488 937.642 541.613 C 948.357 564.737 942.748 587.336 925.124 592.046 C 907.5 596.756 884.492 581.806 873.778 558.682 Z " fill-rule="evenodd" fill="rgb(255,255,255)" fill-opacity="0.28"></path></g></g>
                  <g id="misc"><path d=" M 57.747 442.4 L 302.253 533.75 C 304.321 534.523 305.275 536.789 304.382 538.808 L 299.618 549.577 C 298.725 551.596 296.229 552.957 294.049 552.613 L 39.951 512.622 C 37.771 512.279 36.44 510.263 36.983 508.123 L 53.017 444.877 C 53.56 442.737 55.679 441.627 57.747 442.4 L 57.747 442.4 Z  M 136.988 656.689 L 270.012 646.311 C 272.213 646.139 274.352 647.758 274.784 649.922 L 278.216 667.078 C 278.648 669.242 277.265 671.449 275.128 672.003 L 143.872 705.997 C 141.735 706.551 139.751 705.225 139.445 703.039 L 133.555 660.961 C 133.249 658.775 134.787 656.861 136.988 656.689 L 136.988 656.689 Z  M 265.718 383.122 L 286.222 361.878 C 287.755 360.29 290.113 360.405 291.485 362.135 L 351.515 437.865 C 352.887 439.595 352.639 442.166 350.963 443.603 L 343.037 450.397 C 341.361 451.834 338.647 451.824 336.981 450.375 L 265.959 388.625 C 264.293 387.176 264.185 384.71 265.718 383.122 Z " fill-rule="evenodd" fill="rgb(235,235,235)"></path><path d=" M 59.15 438.66 L 303.64 530 C 305.12 530.54 306.41 531.53 307.31 532.82 C 308.22 534.12 308.71 535.66 308.72 537.24 C 308.72 538.34 308.49 539.43 308.04 540.43 L 303.28 551.2 C 303.27 551.22 303.26 551.24 303.25 551.26 C 302.49 552.89 301.27 554.26 299.74 555.2 C 298.25 556.14 296.53 556.65 294.76 556.67 C 294.32 556.67 293.87 556.63 293.43 556.57 C 293.43 556.57 293.43 556.57 293.43 556.56 L 39.34 516.58 C 37.54 516.3 35.88 515.39 34.68 514.01 C 33.5 512.64 32.86 510.88 32.86 509.07 C 32.86 508.42 32.95 507.77 33.11 507.14 L 49.14 443.91 C 49.54 442.27 50.48 440.8 51.8 439.75 C 53.12 438.71 54.75 438.15 56.43 438.15 C 57.36 438.16 58.28 438.33 59.15 438.66 Z  M 40.96 508.73 L 56.78 446.31 L 300.63 537.41 L 295.98 547.92 C 295.88 548.12 295.71 548.29 295.51 548.4 C 295.28 548.57 295 548.66 294.72 548.67 C 294.7 548.67 294.68 548.66 294.67 548.66 L 40.96 508.73 Z  M 136.69 652.7 L 269.78 642.32 L 270.18 642.3 C 270.24 642.3 270.31 642.3 270.37 642.3 C 272.31 642.32 274.2 643 275.7 644.23 C 277.23 645.46 278.29 647.18 278.7 649.1 C 278.7 649.11 278.7 649.12 278.71 649.14 L 282.14 666.29 C 282.14 666.29 282.14 666.29 282.14 666.29 C 282.24 666.82 282.3 667.35 282.29 667.89 C 282.29 669.69 281.69 671.45 280.6 672.88 C 279.49 674.35 277.92 675.4 276.15 675.87 C 276.14 675.87 276.14 675.87 276.13 675.88 L 144.88 709.87 C 144.24 710.04 143.58 710.12 142.92 710.12 C 141.1 710.13 139.34 709.47 137.97 708.27 C 136.6 707.06 135.72 705.39 135.48 703.58 L 129.59 661.52 C 129.54 661.15 129.52 660.78 129.52 660.42 C 129.51 658.47 130.24 656.59 131.56 655.16 C 132.9 653.72 134.73 652.84 136.69 652.7 Z  M 137.55 660.66 L 270.25 650.31 L 270.35 650.3 C 270.47 650.31 270.58 650.37 270.67 650.45 C 270.77 650.52 270.84 650.62 270.87 650.74 L 274.29 667.86 C 274.29 667.87 274.29 667.87 274.29 667.87 C 274.29 667.94 274.27 668 274.23 668.05 C 274.2 668.09 274.16 668.12 274.11 668.13 L 143.34 702 L 137.55 660.66 Z  M 262.85 380.34 L 283.33 359.12 C 284.74 357.62 286.7 356.77 288.76 356.76 C 291.06 356.78 293.23 357.85 294.64 359.67 L 354.65 435.38 C 354.65 435.38 354.65 435.39 354.66 435.39 C 355.79 436.83 356.4 438.6 356.4 440.43 C 356.41 442.81 355.38 445.07 353.58 446.63 C 353.58 446.63 353.57 446.64 353.57 446.64 L 345.64 453.43 C 345.63 453.44 345.61 453.46 345.6 453.47 C 344.04 454.77 342.06 455.48 340.02 455.47 C 337.96 455.48 335.97 454.76 334.4 453.43 C 334.38 453.42 334.37 453.41 334.36 453.39 L 263.34 391.65 C 261.63 390.17 260.64 388.02 260.63 385.76 C 260.64 383.74 261.43 381.79 262.85 380.34 Z  M 268.74 385.75 L 288.7 365.07 L 348.37 440.34 C 348.4 440.37 348.4 440.4 348.4 440.44 C 348.41 440.49 348.39 440.54 348.35 440.58 L 340.46 447.34 C 340.34 447.43 340.18 447.48 340.02 447.47 C 339.86 447.48 339.7 447.43 339.58 447.33 L 268.74 385.75 Z " fill-rule="evenodd" fill="rgb(0,0,0)"></path><path d=" M 1680.172 413.161 L 1440.46 485.839 C 1438.347 486.48 1436.992 488.756 1437.435 490.918 L 1443.828 522.082 C 1444.271 524.244 1446.404 525.731 1448.587 525.401 L 1698.045 487.599 C 1700.228 487.269 1701.582 485.257 1701.067 483.11 L 1684.933 415.89 C 1684.418 413.743 1682.285 412.52 1680.172 413.161 L 1680.172 413.161 Z  M 1571.045 614.4 L 1477.694 600.233 C 1475.512 599.902 1473.489 601.407 1473.179 603.593 L 1471.56 615.039 C 1471.251 617.225 1472.693 619.588 1474.779 620.313 L 1562.221 650.687 C 1564.307 651.412 1566.424 650.258 1566.945 648.113 L 1574.055 618.887 C 1574.576 616.742 1573.228 614.731 1571.045 614.4 L 1571.045 614.4 Z  M 1506.055 322.293 L 1474.945 293.707 C 1473.32 292.213 1470.915 292.426 1469.578 294.183 L 1388.422 400.817 C 1387.085 402.574 1387.371 405.155 1389.06 406.577 L 1401.94 417.423 C 1403.629 418.845 1406.323 418.791 1407.953 417.302 L 1506.047 327.698 C 1507.677 326.209 1507.68 323.787 1506.055 322.293 Z " fill-rule="evenodd" fill="rgb(235,235,235)"></path><path d=" M 1679.01 409.33 C 1679.75 409.11 1680.52 408.99 1681.3 408.99 C 1683.06 409 1684.74 409.59 1686.11 410.68 C 1687.47 411.76 1688.43 413.27 1688.83 414.97 L 1704.96 482.17 C 1705.1 482.78 1705.17 483.39 1705.18 484.01 C 1705.18 485.84 1704.53 487.61 1703.33 488.99 C 1702.12 490.38 1700.45 491.29 1698.63 491.56 L 1449.19 529.36 C 1449.19 529.36 1449.19 529.36 1449.19 529.36 C 1448.78 529.42 1448.38 529.45 1447.97 529.45 C 1446.09 529.44 1444.27 528.8 1442.81 527.62 C 1441.33 526.43 1440.3 524.76 1439.91 522.9 C 1439.91 522.9 1439.91 522.89 1439.91 522.89 L 1433.52 491.72 C 1433.52 491.72 1433.52 491.72 1433.52 491.72 C 1433.41 491.18 1433.35 490.63 1433.35 490.07 C 1433.36 488.3 1433.93 486.56 1434.97 485.12 C 1436.03 483.65 1437.54 482.56 1439.27 482.02 C 1439.28 482.02 1439.29 482.01 1439.3 482.01 L 1679.01 409.33 Z  M 1681.1 417.06 L 1697.09 483.7 L 1447.99 521.45 C 1447.99 521.45 1447.98 521.45 1447.98 521.45 C 1447.92 521.44 1447.87 521.42 1447.82 521.38 C 1447.78 521.35 1447.75 521.31 1447.74 521.26 L 1441.35 490.12 C 1441.35 490.11 1441.35 490.1 1441.35 490.09 C 1441.35 489.99 1441.39 489.89 1441.46 489.8 C 1441.5 489.74 1441.57 489.69 1441.64 489.66 L 1681.1 417.06 Z  M 1571.63 610.44 C 1573.44 610.71 1575.1 611.61 1576.31 612.99 C 1577.52 614.38 1578.17 616.15 1578.17 617.97 C 1578.17 618.6 1578.09 619.23 1577.94 619.83 L 1570.84 649.05 C 1570.44 650.72 1569.5 652.21 1568.15 653.28 C 1566.82 654.34 1565.17 654.91 1563.47 654.9 C 1562.59 654.9 1561.73 654.75 1560.9 654.46 L 1473.47 624.09 C 1473.45 624.08 1473.43 624.08 1473.41 624.07 C 1471.68 623.44 1470.18 622.28 1469.14 620.75 C 1468.1 619.26 1467.53 617.48 1467.52 615.66 C 1467.52 615.27 1467.54 614.87 1467.6 614.48 C 1467.6 614.48 1467.6 614.48 1467.6 614.48 L 1469.22 603.03 C 1469.49 601.14 1470.43 599.4 1471.87 598.14 C 1473.32 596.88 1475.17 596.19 1477.09 596.19 C 1477.49 596.19 1477.9 596.22 1478.3 596.28 L 1571.63 610.44 Z  M 1477.13 604.19 L 1570.08 618.3 L 1563.15 646.78 L 1476.13 616.55 C 1475.96 616.48 1475.82 616.37 1475.73 616.21 C 1475.6 616.04 1475.53 615.84 1475.52 615.62 C 1475.52 615.61 1475.52 615.61 1475.52 615.6 L 1477.13 604.19 Z  M 1508.73 330.66 L 1410.65 420.26 C 1410.64 420.27 1410.63 420.28 1410.62 420.29 C 1409.03 421.7 1406.99 422.47 1404.87 422.46 C 1402.87 422.47 1400.94 421.78 1399.4 420.51 C 1399.39 420.5 1399.38 420.49 1399.36 420.48 L 1386.48 409.64 C 1386.48 409.63 1386.47 409.63 1386.46 409.62 C 1384.63 408.05 1383.57 405.76 1383.58 403.34 C 1383.58 401.56 1384.16 399.83 1385.23 398.41 C 1385.23 398.4 1385.24 398.4 1385.24 398.39 L 1466.38 291.78 C 1467.82 289.86 1470.07 288.73 1472.46 288.71 C 1474.39 288.72 1476.25 289.46 1477.66 290.77 L 1508.75 319.34 C 1510.35 320.78 1511.26 322.84 1511.27 324.99 C 1511.26 327.15 1510.34 329.21 1508.73 330.66 Z  M 1503.08 324.99 L 1405.28 414.32 C 1405.17 414.42 1405.02 414.47 1404.87 414.45 C 1404.74 414.47 1404.6 414.43 1404.49 414.34 L 1391.65 403.53 C 1391.6 403.48 1391.57 403.42 1391.58 403.35 C 1391.58 403.31 1391.59 403.26 1391.61 403.23 L 1472.53 296.91 L 1503.08 324.99 Z " fill-rule="evenodd" fill="rgb(0,0,0)"></path></g>
                </g>
              </g>
            </g>
            <path id="bg-border" d=" M 0 868.339 C 0 389.09 389.09 0 868.339 0 C 1347.588 0 1736.678 389.09 1736.678 868.339 C 1736.678 1347.588 1347.588 1736.678 868.339 1736.678 C 389.09 1736.678 0 1347.588 0 868.339 Z  M 12 868.339 C 12 395.713 395.713 12 868.339 12 C 1340.965 12 1724.678 395.713 1724.678 868.339 C 1724.678 1340.965 1340.965 1724.678 868.339 1724.678 C 395.713 1724.678 12 1340.965 12 868.339 Z " fill-rule="evenodd" fill="rgb(0,0,0)" style="fill: rgb(255, 255, 255);"></path>
          </g>
        </svg>
      