<?xml version="1.0" encoding="utf-8"?>
<!-- Generator: Adobe Illustrator 16.0.0, SVG Export Plug-In . SVG Version: 6.00 Build 0)  -->
<!DOCTYPE svg PUBLIC "-//W3C//DTD SVG 1.1//EN" "http://www.w3.org/Graphics/SVG/1.1/DTD/svg11.dtd">
<svg version="1.1" id="Layer_1" xmlns="http://www.w3.org/2000/svg" xmlns:xlink="http://www.w3.org/1999/xlink" x="0px" y="0px"
	 width="200px" height="200px" viewBox="0 0 200 200" enable-background="new 0 0 200 200" xml:space="preserve">
<g>
	<circle fill="#31D9DE" cx="100" cy="100" r="100"/>
	<g>
		<path fill="#242D3C" d="M111.544,74.911c-40.91-19.077-81.181-22.96-87.936-8.476l-4.154-1.937
			c8.073-17.311,49.374-14.562,94.028,6.26L111.544,74.911z"/>
		<path fill="#242D3C" d="M178.716,138.761l-4.154-1.936c6.753-14.484-22.106-42.835-63.018-61.914l1.938-4.153
			C158.132,91.578,186.788,121.448,178.716,138.761z"/>
		<path fill="#242D3C" d="M133.149,101.63h-4.584c0-45.142-13.5-83.279-29.48-83.279v-4.583
			C118.188,13.768,133.149,52.358,133.149,101.63z"/>
		<path fill="#242D3C" d="M99.085,189.49v-4.582c15.98,0,29.48-38.138,29.48-83.278h4.584
			C133.149,150.896,118.188,189.49,99.085,189.49z"/>
		<path fill="#242D3C" d="M86.626,74.911l-1.938-4.154c44.653-20.821,85.954-23.572,94.027-6.26l-4.154,1.937
			C167.808,51.951,127.538,55.834,86.626,74.911z"/>
		<path fill="#242D3C" d="M19.455,138.76c-8.072-17.312,20.583-47.182,65.234-68.002l1.938,4.154
			c-40.91,19.078-69.77,47.43-63.018,61.912L19.455,138.76z"/>
	</g>
	<g>
		<ellipse fill="#E6E5E5" cx="99.085" cy="56.987" rx="43.346" ry="16.48"/>
		<path fill="#CCCBCA" d="M55.739,114.495c0,9.104,19.407,16.479,43.346,16.479c23.94,0,43.347-7.376,43.347-16.479V88.764
			c0,11.966-19.406,17.607-43.347,17.607c-23.938,0-43.346-5.642-43.346-17.607V114.495z"/>
		<path fill="#E6E5E5" d="M142.432,88.764c0,11.966-19.406,17.607-43.347,17.607c-23.938,0-43.346-5.642-43.346-17.607v-6.038
			c0,9.098,19.407,16.48,43.346,16.48c23.94,0,43.347-7.383,43.347-16.48V88.764z"/>
		<path fill="#CCCBCA" d="M55.739,56.987c0,9.101,19.407,16.48,43.346,16.48c23.94,0,43.347-7.379,43.347-16.48v25.738
			c0,9.097-19.406,16.48-43.347,16.48c-23.938,0-43.346-7.383-43.346-16.48V56.987z"/>
		<path fill="#CCCBCA" d="M55.739,146.268c0,9.108,19.407,16.484,43.346,16.484c23.94,0,43.347-7.376,43.347-16.484v-25.734
			c0,11.967-19.406,17.607-43.347,17.607c-23.938,0-43.346-5.641-43.346-17.607V146.268z"/>
		<path fill="#E6E5E5" d="M142.432,120.533c0,11.967-19.406,17.607-43.347,17.607c-23.938,0-43.346-5.641-43.346-17.607v-6.038
			c0,9.104,19.407,16.479,43.346,16.479c23.94,0,43.347-7.376,43.347-16.479V120.533z"/>
	</g>
	<g>
		<path fill="#242D3C" d="M99.085,189.49c-19.102,0-34.063-38.594-34.063-87.86c0-49.271,14.962-87.862,34.063-87.862v4.583
			c-15.98,0-29.48,38.137-29.48,83.279c0,45.141,13.5,83.278,29.48,83.278V189.49z"/>
		<path fill="#242D3C" d="M46.97,150.13c-13.93,0.001-23.954-3.732-27.516-11.37l4.154-1.937
			c6.754,14.483,47.024,10.597,87.936-8.477c40.911-19.077,69.771-47.432,63.018-61.912l4.154-1.937
			c8.072,17.309-20.583,47.183-65.233,68.004C88.527,144.136,64.617,150.128,46.97,150.13z"/>
		<path fill="#242D3C" d="M151.2,150.13c-17.646,0-41.554-5.993-66.512-17.628c-44.65-20.82-73.306-50.695-65.234-68.003
			l4.154,1.936c-6.752,14.48,22.107,42.836,63.018,61.913c40.911,19.072,81.181,22.959,87.936,8.478l4.154,1.936
			C175.154,146.396,165.127,150.13,151.2,150.13z"/>
	</g>
	<path fill="#E64717" d="M167.679,147.66c0,4.639-3.761,8.404-8.403,8.404c-4.64,0-8.403-3.766-8.403-8.404
		c0-4.643,3.764-8.405,8.403-8.405C163.918,139.255,167.679,143.018,167.679,147.66z"/>
	<circle fill="#E64717" cx="27.858" cy="114.2" r="8.404"/>
	<circle fill="#E64717" cx="99.086" cy="16.294" r="8.404"/>
</g>
</svg>
