<?xml version="1.0" encoding="utf-8"?>
<!-- Generator: Adobe Illustrator 16.0.0, SVG Export Plug-In . SVG Version: 6.00 Build 0)  -->
<!DOCTYPE svg PUBLIC "-//W3C//DTD SVG 1.1//EN" "http://www.w3.org/Graphics/SVG/1.1/DTD/svg11.dtd">
<svg version="1.1" id="Layer_1" xmlns="http://www.w3.org/2000/svg" xmlns:xlink="http://www.w3.org/1999/xlink" x="0px" y="0px"
	 width="200px" height="200px" viewBox="0 0 200 200" enable-background="new 0 0 200 200" xml:space="preserve">
<g>
	<circle fill="#FFBB33" cx="100" cy="100" r="100"/>
	<g>
		<g>
			<path fill="#31D9DE" d="M172.006,83.402c-3.76,0-7.281,1.107-10.339,3.042c0.011-0.194,0.026-0.383,0.026-0.577
				c0-16.918-12.162-30.641-27.186-30.641c-2.762,0-5.43,0.489-7.934,1.337c-6.163-10.949-16.962-18.247-29.313-18.247
				c-15.91,0-29.282,12.086-33.362,28.558c-1.516-0.301-3.081-0.486-4.669-0.486c-10.743,0-20.007,7.025-24.413,17.246
				c-0.91-0.13-1.832-0.23-2.775-0.23c-11.726,0-21.246,10.715-21.246,23.964c0,13.223,9.521,23.948,21.246,23.948h139.96
				c11.727,0,21.25-10.723,21.25-23.948C193.253,94.118,183.732,83.402,172.006,83.402z"/>
			<g>
				<path fill="#26A7AB" d="M172.006,83.402c-3.76,0-7.281,1.107-10.339,3.042c0.011-0.194,0.026-0.383,0.026-0.577
					c0-16.918-12.162-30.641-27.186-30.641c-2.762,0-5.43,0.489-7.934,1.337c-6.163-10.949-16.962-18.247-29.313-18.247
					c-11.209,0-21.151,6.006-27.479,15.309c6.076-5.965,14.01-9.582,22.708-9.582c12.349,0,23.15,7.297,29.313,18.246
					c2.505-0.85,5.172-1.338,7.934-1.338c15.023,0,27.187,13.725,27.187,30.64c0,0.195-0.017,0.385-0.027,0.578
					c3.058-1.933,6.579-3.043,10.337-3.043c11.729,0,21.25,10.719,21.249,23.968c0,4.922-1.319,9.494-3.58,13.296
					c5.073-4.374,8.351-11.265,8.351-19.021C193.253,94.118,183.732,83.402,172.006,83.402z"/>
			</g>
			<g>
				<g>
					<polygon fill="#242D3C" points="115.938,166.566 65.801,116.443 41.606,92.242 66.035,67.805 156.119,157.88 131.679,182.317 
											"/>
					<g>
						
							<rect x="137.828" y="158.984" transform="matrix(0.707 -0.7072 0.7072 0.707 -70.902 150.9451)" fill="#F2F2F2" width="17.776" height="4.111"/>
						<polygon fill="#F2F2F2" points="139.026,154.748 146.008,147.764 143.247,145.005 136.26,151.985 						"/>
						<polygon fill="#F2F2F2" points="125.065,151.965 137.641,139.394 134.75,136.51 122.174,149.079 						"/>
						<polygon fill="#F2F2F2" points="122.213,137.931 129.19,130.948 126.451,128.205 119.462,135.186 						"/>
						<polygon fill="#F2F2F2" points="108.263,135.162 120.83,122.592 117.947,119.698 105.369,132.268 						"/>
						<polygon fill="#F2F2F2" points="105.4,121.131 112.391,114.148 109.65,111.414 102.672,118.396 						"/>
						<polygon fill="#F2F2F2" points="91.451,118.347 104.016,105.778 101.303,103.063 88.726,115.627 						"/>
						
							<rect x="85.848" y="97.509" transform="matrix(0.7072 -0.707 0.707 0.7072 -43.7803 93.3252)" fill="#F2F2F2" width="9.876" height="4.023"/>
						<polygon fill="#F2F2F2" points="74.659,101.555 87.227,88.984 84.487,86.252 71.924,98.822 						"/>
						<polygon fill="#F2F2F2" points="71.91,87.634 78.882,80.651 76.043,77.8 69.056,84.783 						"/>
						<polygon fill="#F2F2F2" points="57.851,84.751 70.424,72.18 67.702,69.473 55.145,82.042 						"/>
					</g>
				</g>
				<g>
					<g id="XMLID_7_">
						<g>
							<polygon fill="#FFFFFF" points="143.372,108.049 150.608,84.856 139.079,73.327 115.871,80.551 							"/>
							<polygon fill="#242D3C" points="150.608,84.856 155.784,68.157 139.079,73.327 							"/>
						</g>
					</g>
					<g id="XMLID_6_">
						<g>
							<polygon fill="#3E4959" points="89.532,161.891 143.372,108.049 142.822,101.447 135.737,100.407 81.887,154.246 							"/>
							<polygon fill="#242D3C" points="81.887,154.246 135.737,100.407 132.958,90.237 123.489,88.167 69.656,142.006 							"/>
							<polygon fill="#3E4959" points="69.656,142.006 123.489,88.167 122.213,81.062 115.871,80.551 62.042,134.393 							"/>
						</g>
					</g>
					<g id="XMLID_5_">
						<g>
							<polygon fill="#CCCBCA" points="80.88,170.533 89.532,161.891 81.887,154.246 73.247,162.896 							"/>
							<polygon fill="#D9D8D7" points="73.247,162.896 81.887,154.246 69.656,142.006 61.004,150.658 							"/>
							<polygon fill="#CCCBCA" points="61.004,150.658 69.656,142.006 62.042,134.393 53.38,143.042 							"/>
						</g>
					</g>
					<g>
						<path fill="#31D9DE" d="M72.403,179.011c-2.3,2.308-5.773,3.405-9.968,2.782c-4.163-0.635-8.154-2.872-11.217-5.943
							l-3.158-3.158c-3.086-3.075-5.322-7.059-5.956-11.23c-0.612-4.186,0.483-7.656,2.782-9.964l8.483-8.483l27.518,27.515
							L72.403,179.011z"/>
					</g>
				</g>
			</g>
		</g>
	</g>
</g>
</svg>
