<?xml version="1.0" encoding="utf-8"?>
<!-- Generator: Adobe Illustrator 16.0.0, SVG Export Plug-In . SVG Version: 6.00 Build 0)  -->
<!DOCTYPE svg PUBLIC "-//W3C//DTD SVG 1.1//EN" "http://www.w3.org/Graphics/SVG/1.1/DTD/svg11.dtd">
<svg version="1.1" id="Layer_1" xmlns="http://www.w3.org/2000/svg" xmlns:xlink="http://www.w3.org/1999/xlink" x="0px" y="0px"
	 width="200px" height="200px" viewBox="0 0 200 200" enable-background="new 0 0 200 200" xml:space="preserve">
<g>
	<circle fill="#31D9DE" cx="100" cy="100" r="100"/>
	<g>
		<g>
			<g>
				<rect x="86.78" y="70.354" fill="#242D3C" width="87.242" height="4.229"/>
				<path fill="#3E4959" d="M187.198,109.555c0,2.458-0.938,4.912-2.813,6.787c-1.875,1.875-4.332,2.813-6.789,2.813H83.199
					c-2.457,0-4.914-0.938-6.789-2.813c-1.873-1.875-2.811-4.329-2.811-6.787v-25.37c0-2.457,0.938-4.914,2.811-6.788
					c1.875-1.875,4.332-2.812,6.789-2.812h94.399c2.457,0,4.914,0.937,6.788,2.812c1.875,1.874,2.814,4.331,2.814,6.788
					L187.198,109.555L187.198,109.555z"/>
				<path fill="#3E4959" d="M187.198,158.354c0,2.457-0.938,4.914-2.813,6.789c-1.875,1.875-4.332,2.813-6.789,2.813H83.199
					c-2.457,0-4.914-0.938-6.789-2.813c-1.873-1.875-2.811-4.332-2.811-6.789v-25.368c0-2.458,0.938-4.914,2.811-6.789
					c1.875-1.875,4.332-2.813,6.789-2.813h94.399c2.457,0,4.914,0.938,6.788,2.813c1.875,1.875,2.814,4.331,2.814,6.789
					L187.198,158.354L187.198,158.354z"/>
				<path fill="#3E4959" d="M187.198,60.755c0,2.457-0.938,4.913-2.813,6.788c-1.875,1.875-4.332,2.812-6.789,2.812H83.199
					c-2.457,0-4.914-0.938-6.789-2.812c-1.873-1.875-2.811-4.331-2.811-6.788v-25.37c0-2.457,0.938-4.914,2.811-6.789
					c1.875-1.875,4.332-2.812,6.789-2.812h94.399c2.457,0,4.914,0.937,6.788,2.812c1.875,1.875,2.814,4.332,2.814,6.789
					L187.198,60.755L187.198,60.755z"/>
				<rect x="86.78" y="119.154" fill="#242D3C" width="87.242" height="4.229"/>
				<rect x="86.78" y="167.954" fill="#242D3C" width="9.109" height="6.728"/>
				<path fill="#3E4959" d="M95.889,175.848c0,0.408-0.156,0.818-0.47,1.132c-0.313,0.313-0.721,0.469-1.131,0.469h-5.909
					c-0.408,0-0.818-0.154-1.13-0.469c-0.313-0.313-0.469-0.724-0.469-1.132v-1.166h9.108L95.889,175.848L95.889,175.848z"/>
				<rect x="164.912" y="167.954" fill="#242D3C" width="9.109" height="6.728"/>
				<path fill="#3E4959" d="M174.021,175.848c0,0.408-0.156,0.818-0.469,1.132c-0.315,0.313-0.726,0.469-1.133,0.469h-5.909
					c-0.41,0-0.817-0.154-1.131-0.469c-0.314-0.313-0.471-0.724-0.471-1.132v-1.166h9.108v1.166H174.021z"/>
				<g>
					<circle fill="#E64717" cx="146.4" cy="48.07" r="4"/>
					<circle fill="#FFBB33" cx="159.199" cy="48.07" r="4"/>
					<circle fill="#14B5BA" cx="171.999" cy="48.07" r="4"/>
				</g>
				<g>
					<circle fill="#E64717" cx="146.4" cy="96.869" r="4"/>
					<circle fill="#FFBB33" cx="159.199" cy="96.869" r="4"/>
					<circle fill="#14B5BA" cx="171.999" cy="96.869" r="4"/>
				</g>
				<g>
					<circle fill="#E64717" cx="146.4" cy="145.669" r="4"/>
					<circle fill="#FFBB33" cx="159.199" cy="145.669" r="4"/>
					<circle fill="#14B5BA" cx="171.999" cy="145.669" r="4"/>
				</g>
			</g>
			<g>
				<path fill="#242D3C" d="M130.4,51.68c-7.371,0-14.742-2.812-20.365-8.435c-5.623-5.624-8.436-12.995-8.436-20.365v-1.145H48.8
					c0,7.37-2.811,14.674-8.434,20.298c-5.625,5.623-12.996,8.436-20.365,8.436h-1.6v1.21v3.209
					c0,20.509,3.946,41.353,12.402,61.445c8.456,20.094,20.602,37.483,35.267,51.821l9.129,8.926l9.129-8.926
					c14.666-14.338,26.813-31.729,35.268-51.821C128.053,96.24,132,75.397,132,54.889V51.68H130.4z"/>
				<path fill="#FFFFFF" d="M72.781,161.291c-14.251-13.933-25.397-30.312-33.13-48.682c-7.168-17.035-11.062-34.976-11.59-53.386
					c7.181-1.526,13.777-5.09,19.092-10.404c4.922-4.923,8.343-10.938,10.035-17.486h35.74c1.57,7.026,5.102,13.479,10.316,18.695
					c5.305,5.305,11.887,8.866,19.053,10.397c-0.659,17.987-4.536,35.518-11.551,52.184c-7.729,18.369-18.879,34.747-33.129,48.682
					l-2.418,2.362L72.781,161.291z"/>
				<polygon fill="#FFBB33" points="95.089,89.807 73.246,155.495 73.391,103.713 55.272,103.713 63.397,39.496 87.078,39.496 
					74.53,89.921 				"/>
				<g>
					<path fill="#D9D9D9" d="M118.254,59.303c-0.75,17.68-4.607,34.913-11.508,51.307c-7.73,18.369-18.879,34.747-33.129,48.682
						l-1.435,1.401c0.2,0.198,0.396,0.401,0.599,0.6l2.418,2.361l2.418-2.362c14.25-13.935,25.398-30.313,33.129-48.682
						c7.014-16.664,10.891-34.195,11.551-52.183C120.924,60.134,119.58,59.741,118.254,59.303z"/>
				</g>
				<polygon fill="#D69D2A" points="74.53,89.921 87.078,39.496 74.468,39.496 64.53,96.921 82.634,96.82 73.246,155.495 
					95.09,89.807 				"/>
				<path fill="#D9D9D9" d="M103.244,50.03c-5.214-5.216-8.746-11.669-10.316-18.695h-4v4c1.57,7.026,5.102,13.479,10.316,18.695
					c5.305,5.305,11.887,8.866,19.053,10.397h3.794c0.085-1.331,0.157-2.664,0.206-4C115.131,58.896,108.549,55.335,103.244,50.03z"
					/>
			</g>
		</g>
	</g>
</g>
</svg>
