<?xml version="1.0" encoding="utf-8"?>
<!-- Generator: Adobe Illustrator 16.0.0, SVG Export Plug-In . SVG Version: 6.00 Build 0)  -->
<!DOCTYPE svg PUBLIC "-//W3C//DTD SVG 1.1//EN" "http://www.w3.org/Graphics/SVG/1.1/DTD/svg11.dtd">
<svg version="1.1" id="Layer_1" xmlns="http://www.w3.org/2000/svg" xmlns:xlink="http://www.w3.org/1999/xlink" x="0px" y="0px"
	 width="200px" height="200px" viewBox="0 0 200 200" enable-background="new 0 0 200 200" xml:space="preserve">
<g>
	<circle fill="#FF6D3B" cx="100" cy="100" r="100"/>
	<g>
		<g>
			<g>
				<polygon fill="#FFFFFF" points="175.529,163.804 93.474,163.804 93.474,43.915 153.151,43.915 153.151,66.294 175.529,66.294 
									"/>
				<polygon fill="#3E4959" points="153.151,43.915 153.151,66.294 175.529,66.294 				"/>
				<path fill="#EDECEC" d="M129.572,163.804h45.957v-45.957c0,11.761-4.485,23.522-13.46,32.497
					C153.096,159.317,141.333,163.804,129.572,163.804z"/>
				<g>
					<rect x="99.135" y="56.368" fill="#242D3C" width="46.758" height="6.394"/>
					<rect x="99.135" y="71.354" fill="#242D3C" width="70.734" height="6.394"/>
					<rect x="99.135" y="84.142" fill="#242D3C" width="70.734" height="6.394"/>
					<rect x="99.135" y="96.93" fill="#242D3C" width="70.734" height="6.396"/>
					<rect x="99.135" y="147.217" fill="#242D3C" width="70.734" height="6.396"/>
					<rect x="141.097" y="112.05" fill="#242D3C" width="28.772" height="6.394"/>
					<rect x="99.135" y="109.653" fill="#242D3C" width="28.773" height="6.393"/>
					<rect x="141.097" y="124.838" fill="#242D3C" width="28.772" height="6.395"/>
					<rect x="99.135" y="122.442" fill="#242D3C" width="28.773" height="6.391"/>
					<rect x="141.097" y="136.826" fill="#242D3C" width="28.772" height="6.396"/>
					<rect x="99.135" y="134.431" fill="#242D3C" width="28.773" height="6.391"/>
				</g>
			</g>
			<g>
				<rect x="24.33" y="36.078" fill="#31D9DE" width="118.89" height="60.827"/>
				<g>
					<rect x="29.758" y="44.087" fill="#3E4959" width="6.361" height="6.361"/>
					<rect x="29.758" y="56.842" fill="#3E4959" width="6.361" height="6.361"/>
					<rect x="29.758" y="69.63" fill="#3E4959" width="6.361" height="6.361"/>
					<rect x="29.758" y="82.418" fill="#3E4959" width="6.361" height="6.361"/>
					<rect x="89.484" y="44.087" fill="#3E4959" width="6.361" height="6.361"/>
					<rect x="89.484" y="56.842" fill="#3E4959" width="6.361" height="6.361"/>
					<rect x="89.484" y="69.63" fill="#3E4959" width="6.361" height="6.361"/>
					<rect x="89.484" y="82.418" fill="#3E4959" width="6.361" height="6.361"/>
				</g>
				<g>
					<rect x="42.313" y="44.071" fill="#242D3C" width="29.172" height="6.394"/>
					<rect x="42.313" y="56.859" fill="#242D3C" width="29.172" height="6.394"/>
					<rect x="42.313" y="69.647" fill="#242D3C" width="29.172" height="6.394"/>
					<rect x="42.313" y="82.435" fill="#242D3C" width="29.172" height="6.394"/>
					<rect x="102.258" y="44.071" fill="#242D3C" width="29.172" height="6.394"/>
					<rect x="102.258" y="56.859" fill="#242D3C" width="29.172" height="6.394"/>
					<rect x="102.258" y="69.647" fill="#242D3C" width="29.172" height="6.394"/>
					<rect x="102.258" y="82.435" fill="#242D3C" width="29.172" height="6.394"/>
				</g>
				<path fill="#27B1B5" d="M115.245,96.905h27.975V68.931c0,7.16-2.729,14.319-8.194,19.781
					C129.564,94.174,122.404,96.905,115.245,96.905z"/>
			</g>
			<g>
				<polygon fill="#FFBB33" points="66.757,99.927 66.757,120.708 87.539,120.708 				"/>
				<g>
					<polygon fill="#FFD85C" points="24.33,163.136 87.539,163.136 87.539,120.708 66.757,120.708 66.757,99.927 24.33,99.927 					
						"/>
					<g>
						<rect x="32.055" y="112.316" fill="#242D3C" width="27.775" height="3.196"/>
						<rect x="32.055" y="126.036" fill="#242D3C" width="45.094" height="3.196"/>
						<rect x="32.055" y="137.692" fill="#242D3C" width="45.094" height="3.196"/>
						<rect x="32.055" y="150.08" fill="#242D3C" width="45.094" height="3.198"/>
					</g>
				</g>
				<path fill="#D4B34C" d="M65.56,163.136h21.979v-21.979c0,5.624-2.146,11.25-6.438,15.543
					C76.809,160.99,71.183,163.136,65.56,163.136z"/>
			</g>
		</g>
	</g>
</g>
</svg>
