<?xml version="1.0" encoding="utf-8"?>
<!-- Generator: Adobe Illustrator 16.0.0, SVG Export Plug-In . SVG Version: 6.00 Build 0)  -->
<!DOCTYPE svg PUBLIC "-//W3C//DTD SVG 1.1//EN" "http://www.w3.org/Graphics/SVG/1.1/DTD/svg11.dtd">
<svg version="1.1" id="Layer_1" xmlns="http://www.w3.org/2000/svg" xmlns:xlink="http://www.w3.org/1999/xlink" x="0px" y="0px"
	 width="200px" height="200px" viewBox="0 0 200 200" enable-background="new 0 0 200 200" xml:space="preserve">
<g>
	<circle fill="#FFBB33" cx="100" cy="100.001" r="100.001"/>
	<g>
		<g>
			<rect x="20.008" y="164.797" fill="#242D3C" width="160.001" height="8.688"/>
			<rect x="20.008" y="169.141" fill="#1D2430" width="160.001" height="4.344"/>
			<rect x="32.808" y="110.473" fill="#F15424" width="24" height="48.002"/>
			<rect x="44.808" y="110.473" fill="#B8401C" width="12" height="48.002"/>
			<rect x="69.608" y="94.473" fill="#31D9DE" width="24" height="64.001"/>
			<rect x="81.608" y="94.473" fill="#28B1B5" width="12" height="64.001"/>
			<rect x="106.408" y="78.473" fill="#F15424" width="24.001" height="80.001"/>
			<rect x="106.408" y="78.473" fill="#F15424" width="24.001" height="80.001"/>
			<rect x="118.409" y="78.473" fill="#B8401C" width="12" height="80.001"/>
			<rect x="143.209" y="62.473" fill="#31D9DE" width="24" height="96.001"/>
			<rect x="155.209" y="62.473" fill="#28B1B5" width="12" height="96.001"/>
			<polygon fill="#242D3C" points="149.358,26.473 138.801,31.075 151.394,36.017 31.21,88.41 34.406,95.742 154.59,43.35 
				149.64,55.939 160.196,51.338 167.209,33.485 			"/>
			<polygon fill="#1D2430" points="153.018,39.69 153.021,39.683 32.838,92.075 34.406,95.742 144.134,47.869 144.134,47.908 
				154.59,43.35 149.64,55.939 160.196,51.338 167.2,33.508 			"/>
		</g>
	</g>
</g>
</svg>
