<?xml version="1.0" encoding="utf-8"?>
<!-- Generator: Adobe Illustrator 16.0.0, SVG Export Plug-In . SVG Version: 6.00 Build 0)  -->
<!DOCTYPE svg PUBLIC "-//W3C//DTD SVG 1.1//EN" "http://www.w3.org/Graphics/SVG/1.1/DTD/svg11.dtd">
<svg version="1.1" id="Layer_1" xmlns="http://www.w3.org/2000/svg" xmlns:xlink="http://www.w3.org/1999/xlink" x="0px" y="0px"
	 width="200px" height="200px" viewBox="0 0 200 200" enable-background="new 0 0 200 200" xml:space="preserve">
<g>
	<circle fill="#FF6D3B" cx="100" cy="100.001" r="100"/>
	<g>
		<g>
			<g>
				<g id="XMLID_8_">
					<g>
						<path fill="#31D9DE" d="M133.361,48.961c17.897,18.452,17.517,47.871-0.898,65.815l-14.572,38.246H91.593h-9.475
							l-15.472-39.146c-17.898-18.416-17.518-47.872,0.898-65.779C85.961,30.165,115.417,30.556,133.361,48.961z"/>
						<path fill="#3E4959" d="M117.891,173.583v4.476c0,0.284-0.01,0.563-0.036,0.845l-35.735-14.321v-5.338L117.891,173.583z"/>
						<polygon fill="#242D3C" points="117.891,168.246 117.891,173.583 82.118,159.241 82.118,153.903 						"/>
						<polygon fill="#3E4959" points="117.891,162.907 117.891,168.246 82.118,153.903 82.118,153.022 91.593,153.022 						"/>
						<polygon fill="#242D3C" points="117.891,153.022 117.891,162.907 91.593,153.022 						"/>
						<path fill="#242D3C" d="M82.118,164.579l35.736,14.324c-0.125,1.655-0.633,3.272-1.521,4.731l-0.011-0.008l-34.205-13.711
							V164.579z"/>
						<path fill="#3E4959" d="M114.74,185.655c-0.676,0.677-1.425,1.247-2.215,1.708v-0.008l-30.408-12.102v-5.338l34.206,13.711
							l0.01,0.008C115.889,184.356,115.362,185.031,114.74,185.655z"/>
						<path fill="#242D3C" d="M112.525,187.363c-1.647,0.961-3.506,1.438-5.373,1.438H92.855c-2.767,0-5.487-1.048-7.588-3.146
							c-2.1-2.109-3.148-4.831-3.148-7.597v-2.805l30.407,12.102L112.525,187.363L112.525,187.363z"/>
					</g>
				</g>
			</g>
			<g>
				<path fill="#242D3C" d="M131.225,107.558c0,1.523-0.586,3.057-1.758,4.23c-1.163,1.169-2.702,1.751-4.23,1.751H76.333
					c-1.528,0-3.067-0.582-4.231-1.751c-1.172-1.174-1.758-2.703-1.758-4.23V58.646c0-1.531,0.586-3.063,1.758-4.23
					c1.164-1.173,2.703-1.753,4.231-1.753h48.901c1.53,0,3.067,0.58,4.229,1.753c1.175,1.168,1.761,2.7,1.761,4.23V107.558
					L131.225,107.558z"/>
				<path fill="#FFFFFF" d="M80.314,107.558c-1.013,0-2.033-0.391-2.809-1.168c-0.783-0.779-1.173-1.807-1.173-2.824V62.637
					c0-1.024,0.39-2.043,1.173-2.819c0.775-0.779,1.795-1.172,2.809-1.172h40.94c1.013,0,2.032,0.393,2.81,1.172
					c0.782,0.776,1.172,1.795,1.172,2.819v40.929c0,1.021-0.39,2.045-1.172,2.824c-0.775,0.777-1.797,1.168-2.81,1.168H80.314z"/>
				<path fill="#E6E4E3" d="M125.236,62.642c0-0.254-0.023-0.51-0.072-0.761c-0.146-0.758-0.513-1.479-1.1-2.063
					c-0.777-0.779-1.797-1.172-2.812-1.172h-0.019v0.004h-40.92c-1.013,0-2.033,0.392-2.81,1.168
					c-0.782,0.779-1.172,1.807-1.172,2.824v40.916h-0.001v0.008c0,0.256,0.023,0.51,0.072,0.763
					c0.146,0.758,0.511,1.479,1.101,2.063c0.776,0.779,1.797,1.172,2.81,1.172h0.02v-0.004h40.921c1.013,0,2.032-0.392,2.81-1.168
					c0.782-0.779,1.172-1.806,1.172-2.824V62.648h0.001L125.236,62.642L125.236,62.642z M121.236,99.565
					c0,1.02-0.39,2.045-1.172,2.824c-0.777,0.777-1.797,1.168-2.812,1.168H84.334c-1.023,0-2.048-0.391-2.829-1.172
					c-0.78-0.779-1.171-1.805-1.171-2.828V66.642c0-1.019,0.389-2.045,1.172-2.824c0.775-0.776,1.797-1.168,2.811-1.168h32.92
					c1.023,0,2.048,0.392,2.828,1.171c0.781,0.781,1.172,1.806,1.172,2.829V99.565L121.236,99.565z"/>
				<path fill="#3E4959" d="M119.248,66.629c0,1.102-0.898,1.997-1.987,1.997c-1.109,0-2.009-0.896-2.009-1.997
					c0-1.097,0.899-1.996,2.009-1.996C118.35,64.633,119.248,65.533,119.248,66.629z"/>
				<path fill="#3E4959" d="M86.316,66.629c0,1.102-0.899,1.997-2.01,1.997c-1.086,0-1.986-0.896-1.986-1.997
					c0-1.097,0.9-1.996,1.986-1.996C85.417,64.633,86.316,65.533,86.316,66.629z"/>
				<path fill="#3E4959" d="M86.316,99.565c0,1.105-0.899,1.998-2.01,1.998c-1.086,0-1.986-0.893-1.986-1.998
					c0-1.103,0.9-1.99,1.986-1.99C85.417,97.577,86.316,98.464,86.316,99.565z"/>
				<path fill="#3E4959" d="M119.248,99.565c0,1.105-0.898,1.998-1.987,1.998c-1.109,0-2.009-0.893-2.009-1.998
					c0-1.103,0.899-1.99,2.009-1.99C118.35,97.577,119.248,98.464,119.248,99.565z"/>
				<g>
					<path fill="#242D3C" d="M94.232,89.696c-0.68,0.332-2.021,0.67-3.727,0.67c-3.986,0-6.977-2.515-6.977-7.144
						c0-4.417,2.988-7.414,7.371-7.414c1.763,0,2.854,0.377,3.35,0.632l-0.438,1.487c-0.694-0.337-1.679-0.587-2.854-0.587
						c-3.307,0-5.499,2.114-5.499,5.822c0,3.449,1.979,5.673,5.421,5.673c1.102,0,2.234-0.229,2.975-0.586L94.232,89.696z"/>
					<path fill="#242D3C" d="M96.508,76.209c0.885-0.144,2.035-0.275,3.498-0.275c1.813,0,3.127,0.425,3.961,1.181
						c0.78,0.665,1.232,1.693,1.232,2.952c0,1.276-0.377,2.275-1.082,3.015c-0.957,1.02-2.527,1.548-4.318,1.548
						c-0.535,0-1.047-0.02-1.466-0.123v5.655h-1.825V76.209z M98.333,83.013c0.401,0.104,0.896,0.151,1.519,0.151
						c2.191,0,3.535-1.066,3.535-3.016c0-1.863-1.326-2.77-3.332-2.77c-0.791,0-1.396,0.066-1.722,0.149V83.013z"/>
					<path fill="#242D3C" d="M109.475,76.042v8.354c0,3.164,1.396,4.506,3.291,4.506c2.097,0,3.44-1.381,3.44-4.506v-8.354h1.831
						v8.229c0,4.336-2.269,6.117-5.331,6.117c-2.896,0-5.071-1.654-5.071-6.033v-8.313H109.475z"/>
				</g>
				<g>
					<g>
						<rect x="81.329" y="113.536" fill="#CCCBCA" width="3.995" height="3.992"/>
						<rect x="81.329" y="117.528" fill="#FFFFFF" width="3.995" height="3.988"/>
					</g>
					<g>
						<rect x="116.243" y="113.536" fill="#CCCBCA" width="3.986" height="3.992"/>
						<rect x="116.243" y="117.528" fill="#FFFFFF" width="3.986" height="3.988"/>
					</g>
					<g>
						<rect x="109.26" y="113.536" fill="#CCCBCA" width="3.996" height="3.992"/>
						<rect x="109.26" y="117.528" fill="#FFFFFF" width="3.996" height="3.988"/>
					</g>
					<g>
						<rect x="102.277" y="113.536" fill="#CCCBCA" width="3.996" height="3.992"/>
						<rect x="102.277" y="117.528" fill="#FFFFFF" width="3.996" height="3.988"/>
					</g>
					<g>
						<rect x="95.296" y="113.536" fill="#CCCBCA" width="3.995" height="3.992"/>
						<rect x="95.296" y="117.528" fill="#FFFFFF" width="3.995" height="3.988"/>
					</g>
					<g>
						<rect x="88.313" y="113.536" fill="#CCCBCA" width="3.996" height="3.992"/>
						<rect x="88.313" y="117.528" fill="#FFFFFF" width="3.996" height="3.988"/>
					</g>
				</g>
				<g>
					<g>
						<rect x="131.225" y="98.56" fill="#CCCBCA" width="3.995" height="3.986"/>
						<rect x="135.22" y="98.56" fill="#FFFFFF" width="3.979" height="3.986"/>
					</g>
					<g>
						<rect x="131.225" y="63.648" fill="#CCCBCA" width="3.995" height="3.988"/>
						<rect x="135.22" y="63.648" fill="#FFFFFF" width="3.979" height="3.988"/>
					</g>
					<g>
						<rect x="131.225" y="70.632" fill="#CCCBCA" width="3.995" height="3.989"/>
						<rect x="135.22" y="70.632" fill="#FFFFFF" width="3.979" height="3.989"/>
					</g>
					<g>
						<rect x="131.225" y="77.612" fill="#CCCBCA" width="3.995" height="3.992"/>
						<rect x="135.22" y="77.612" fill="#FFFFFF" width="3.979" height="3.992"/>
					</g>
					<g>
						<rect x="131.225" y="84.591" fill="#CCCBCA" width="3.995" height="3.996"/>
						<rect x="135.22" y="84.591" fill="#FFFFFF" width="3.979" height="3.996"/>
					</g>
					<g>
						<rect x="131.225" y="91.577" fill="#CCCBCA" width="3.995" height="3.986"/>
						<rect x="135.22" y="91.577" fill="#FFFFFF" width="3.979" height="3.986"/>
					</g>
				</g>
				<g>
					<g>
						<rect x="116.243" y="48.705" fill="#CCCBCA" width="3.986" height="3.991"/>
						<rect x="116.243" y="44.716" fill="#FFFFFF" width="3.986" height="3.987"/>
					</g>
					<g>
						<rect x="81.329" y="48.705" fill="#CCCBCA" width="3.995" height="3.991"/>
						<rect x="81.329" y="44.716" fill="#FFFFFF" width="3.995" height="3.987"/>
					</g>
					<g>
						<rect x="88.313" y="48.705" fill="#CCCBCA" width="3.996" height="3.991"/>
						<rect x="88.313" y="44.716" fill="#FFFFFF" width="3.996" height="3.987"/>
					</g>
					<g>
						<rect x="95.296" y="48.705" fill="#CCCBCA" width="3.995" height="3.991"/>
						<rect x="95.296" y="44.716" fill="#FFFFFF" width="3.995" height="3.987"/>
					</g>
					<g>
						<rect x="102.277" y="48.705" fill="#CCCBCA" width="3.996" height="3.991"/>
						<rect x="102.277" y="44.716" fill="#FFFFFF" width="3.996" height="3.987"/>
					</g>
					<g>
						<rect x="109.26" y="48.705" fill="#CCCBCA" width="3.996" height="3.991"/>
						<rect x="109.26" y="44.716" fill="#FFFFFF" width="3.996" height="3.987"/>
					</g>
				</g>
				<g>
					<g>
						<rect x="66.354" y="63.648" fill="#CCCBCA" width="3.991" height="3.988"/>
						<rect x="62.369" y="63.648" fill="#FFFFFF" width="3.982" height="3.988"/>
					</g>
					<g>
						<rect x="66.354" y="98.56" fill="#CCCBCA" width="3.991" height="3.986"/>
						<rect x="62.369" y="98.56" fill="#FFFFFF" width="3.982" height="3.986"/>
					</g>
					<g>
						<rect x="66.354" y="91.577" fill="#CCCBCA" width="3.991" height="3.986"/>
						<rect x="62.369" y="91.577" fill="#FFFFFF" width="3.982" height="3.986"/>
					</g>
					<g>
						<rect x="66.354" y="84.591" fill="#CCCBCA" width="3.991" height="3.996"/>
						<rect x="62.369" y="84.591" fill="#FFFFFF" width="3.982" height="3.996"/>
					</g>
					<g>
						<rect x="66.354" y="77.612" fill="#CCCBCA" width="3.991" height="3.992"/>
						<rect x="62.369" y="77.612" fill="#FFFFFF" width="3.982" height="3.992"/>
					</g>
					<g>
						<rect x="66.354" y="70.632" fill="#CCCBCA" width="3.991" height="3.989"/>
						<rect x="62.369" y="70.632" fill="#FFFFFF" width="3.982" height="3.989"/>
					</g>
				</g>
			</g>
			<g>
				<rect x="97.773" y="11.202" fill="#FFBB33" width="4.453" height="17.79"/>
				<polygon fill="#FFBB33" points="66.766,19.509 62.919,21.73 71.82,37.14 75.673,34.919 				"/>
				
					<rect x="44.589" y="41.916" transform="matrix(0.4991 -0.8666 0.8666 0.4991 -20.5803 66.0172)" fill="#FFBB33" width="4.446" height="17.787"/>
				<rect x="29.697" y="79.288" fill="#FFBB33" width="17.783" height="4.443"/>
				<polygon fill="#FFBB33" points="38.001,114.739 40.223,118.589 55.631,109.696 53.402,105.839 				"/>
				<polygon fill="#FFBB33" points="159.784,118.585 162.006,114.735 146.601,105.839 144.374,109.694 				"/>
				<rect x="152.522" y="79.282" fill="#FFBB33" width="17.784" height="4.444"/>
				<polygon fill="#FFBB33" points="161.999,48.279 159.78,44.426 144.373,53.325 146.601,57.175 				"/>
				<polygon fill="#FFBB33" points="137.084,21.729 133.233,19.508 124.328,34.916 128.182,37.139 				"/>
			</g>
		</g>
	</g>
</g>
</svg>
