<?xml version="1.0" encoding="utf-8"?>
<!-- Generator: Adobe Illustrator 16.0.0, SVG Export Plug-In . SVG Version: 6.00 Build 0)  -->
<!DOCTYPE svg PUBLIC "-//W3C//DTD SVG 1.1//EN" "http://www.w3.org/Graphics/SVG/1.1/DTD/svg11.dtd">
<svg version="1.1" id="Layer_1" xmlns="http://www.w3.org/2000/svg" xmlns:xlink="http://www.w3.org/1999/xlink" x="0px" y="0px"
	 width="200px" height="200px" viewBox="0 0 200 200" enable-background="new 0 0 200 200" xml:space="preserve">
<g>
	<circle fill="#FFBB33" cx="100" cy="100" r="100"/>
	<g>
		<g>
			<g>
				<g>
					<path fill="#31D9DE" d="M161.607,87.277l-0.002,0.044c-3.2,0.353-7.743-0.745-10.873-0.619
						c-6.161,0.419-6.941-5.41-11.843-8.648c-2.515-1.44-4.609-1.743-7.04-2.167c-1.764-0.108-4.212-0.082-5.702-1.497
						c-2.53-2.644-2.542-7.597-6.88-8.933c-2.253-0.641-2.414,0.722-4.352,0.771c-0.511-0.022-4.248-0.598-4.641-0.782
						c-2.31-0.645-2.102-0.067-3.045-2.605c-0.295-1.376-0.928-3.047,0.307-4.146c2.056-1.868,4.954,1.646,7.547-0.948
						c0.592-0.66-0.324-2.285,0.892-2.874c1.213-0.589,2.99,0.725,4.225,1.282c2.93-0.757,4.974-0.694,7.845,0.372
						c0.559,0.304,2.113,1.492,2.914,1.407c0.912-0.03,1.357-1.495,2.445-1.685c3.84-0.792,8.73,4.374,12.55,0.738l3.357,3.883
						c-5.757-7.254-13.224-13.336-22.161-17.565c-18.918-8.952-40.084-7.557-57.083,1.904l0.366,0.671
						c2.63,1.957,7.144,1.957,4.91,5.17c-1.111,1.835-2.185,1.101-3.591,2.086c-2.844,1.984-1.13,0.887-0.981,3.577
						c0.373,4.205-1.542,4.251-5.256,5.097c-4.007,0.95-5.676-0.55-9.116,0.197c-2.552,0.372-5.163,1.557-6.531,3.457
						c-0.262,0.374-0.495,0.775-0.653,1.2c-0.549,1.163-0.217,2.985-0.768,4.148c-0.643,1.36-1.983,1.664-2.718,2.739
						c-1.211,2.045-0.875,4.34-1.101,6.836c-0.303,4.126,1.93,4.942,2.572,8.576c1.039,3.337-2.381,9.062-3.465,12.348
						c-0.977,3.567-1.045,9.969-2.991,13.088l-0.852,0.208c4.331,17.576,16.252,33.134,33.891,41.48
						c31.147,14.738,68.334,1.441,83.073-29.704C162.851,113.705,164.207,100.031,161.607,87.277z"/>
					<path fill="#3E4959" d="M43.733,101.311c1.084-3.286,4.504-9.011,3.465-12.349c-0.642-3.634-2.875-4.449-2.572-8.576
						c0.226-2.496-0.11-4.791,1.1-6.836c0.735-1.074,2.076-1.378,2.719-2.738c0.55-1.163,0.217-2.986,0.768-4.148
						c0.158-0.425,0.391-0.826,0.653-1.2c1.368-1.899,3.979-3.084,6.531-3.456c3.441-0.747,5.109,0.752,9.116-0.197
						c3.715-0.846,5.629-0.892,5.256-5.097c-0.149-2.689-1.864-1.594,0.981-3.577c1.406-0.986,2.481-0.25,3.591-2.086
						c2.233-3.212-2.28-3.212-4.91-5.17l-0.366-0.671c-8.352,4.657-15.706,11.268-21.285,19.542
						c-1.757,2.598-3.331,5.353-4.706,8.26c-6.387,13.499-7.509,28.14-4.185,41.592l0.851-0.208
						C42.688,111.278,42.756,104.877,43.733,101.311z"/>
					<path fill="#3E4959" d="M133.404,56.249c-1.088,0.189-1.535,1.655-2.445,1.686c-0.801,0.083-2.355-1.104-2.915-1.407
						c-2.873-1.066-4.914-1.128-7.847-0.373c-1.231-0.557-3.012-1.87-4.225-1.281c-1.217,0.588-0.299,2.214-0.891,2.873
						c-2.592,2.595-5.492-0.92-7.547,0.949c-1.232,1.098-0.602,2.769-0.309,4.145c0.942,2.537,0.734,1.959,3.045,2.605
						c0.395,0.185,4.133,0.76,4.641,0.782c1.94-0.049,2.1-1.412,4.352-0.771c4.34,1.336,4.352,6.289,6.88,8.932
						c1.49,1.416,3.938,1.389,5.702,1.497c2.434,0.424,4.525,0.728,7.042,2.167c4.902,3.239,5.68,9.068,11.841,8.648
						c3.129-0.125,7.675,0.972,10.873,0.619l0.012-0.373c-0.249-4.671-2.108-8.818-4.404-13.246
						c-0.098-0.185-0.193-0.372-0.288-0.558c-0.474-0.92-0.933-1.846-1.386-2.767c-1.604-3.242-3.436-6.15-5.67-8.861l-0.559-0.647
						l-3.358-3.883C142.135,60.624,137.244,55.457,133.404,56.249z"/>
				</g>
				<g>
					<path fill="#3E4959" d="M129.424,99.002c-1.36-7.22-10.218-11.434-15.516-16.335c-1.988-1.89-4.181-2.7-6.354-4.197
						c-2.218-1.779-4.234-4.579-6.752-5.801c-3.371-1.362-8.213,0.415-9.969,3.601c0,0-7.499,4.76-8.4,9.742
						c-0.701,3.96-2.034,9.778-0.674,13.47c1.318,3.229,4.801,6.302,4.514,9.937c-0.307,2.27-2.398,3.624-2.531,5.952
						c-0.301,4.088,4.397,8.229,3.5,13.034c-0.3,2.213-2.005,3.805-2.987,5.939c-1.486,3.59-2.433,11.647,2.116,13.561
						c3.659,1.26,11.335-1.964,14.193-3.974c5.571-3.747,8.966-9.498,13.052-14.423c4.269-5.099,11.513-7.361,15.06-13.002
						C132.268,111.053,130.247,105.115,129.424,99.002z"/>
				</g>
				<g>
					<path fill="#3E4959" d="M137.397,87.996c-0.905-1.213,2.087-1.215,0.595-2.475c-3.789-3.664-4.997-5.715-9.669-8.224
						c-1.068-0.55-5.949-2.104-6.866-2.301l-1.869-0.381c-2.984-0.208-5.451,6.377-2.594,8.428
						c2.889,1.955,9.922,7.978,11.392,8.371c2.379,0.599,5.334,4.587,7.517,4.549C137.928,93.633,140.176,91.358,137.397,87.996z"/>
				</g>
				<path fill="#1CB3B8" d="M161.607,87.277l-0.002,0.044c-1.366,0.15-2.98,0.033-4.625-0.138
					c2.101,12.207,0.602,25.159-5.096,37.208c-13.771,29.099-47.132,42.61-76.858,32.244c30.89,13.815,67.288,0.479,81.832-30.255
					C162.851,113.705,164.207,100.031,161.607,87.277z"/>
			</g>
			<g>
				<polygon fill="#242D3C" points="12.6,140.397 12.6,73.966 12.6,41.893 33.749,41.893 33.749,161.271 12.6,161.271 				"/>
				<g>
					<rect x="24.573" y="156.882" fill="#F2F2F2" width="9.176" height="1.554"/>
					<rect x="28.653" y="152.444" fill="#F2F2F2" width="5.096" height="1.469"/>
					<rect x="24.573" y="147.904" fill="#F2F2F2" width="9.176" height="1.543"/>
					<rect x="28.653" y="143.465" fill="#F2F2F2" width="5.096" height="1.459"/>
					<rect x="24.573" y="138.92" fill="#F2F2F2" width="9.176" height="1.548"/>
					<rect x="28.653" y="134.483" fill="#F2F2F2" width="5.096" height="1.463"/>
					<rect x="24.573" y="130.022" fill="#F2F2F2" width="9.176" height="1.452"/>
					<rect x="28.653" y="125.501" fill="#F2F2F2" width="5.096" height="1.524"/>
					<rect x="24.573" y="121.039" fill="#F2F2F2" width="9.176" height="1.449"/>
					<rect x="28.653" y="116.509" fill="#F2F2F2" width="5.096" height="1.532"/>
					<rect x="24.573" y="112.059" fill="#F2F2F2" width="9.176" height="1.452"/>
					<rect x="28.653" y="107.535" fill="#F2F2F2" width="5.096" height="1.533"/>
					<rect x="24.573" y="103.077" fill="#F2F2F2" width="9.176" height="1.447"/>
					<rect x="28.653" y="98.55" fill="#F2F2F2" width="5.096" height="1.521"/>
					<rect x="24.573" y="94.09" fill="#F2F2F2" width="9.176" height="1.45"/>
					<rect x="28.653" y="89.568" fill="#F2F2F2" width="5.096" height="1.541"/>
					<rect x="24.573" y="85.107" fill="#F2F2F2" width="9.176" height="1.451"/>
					<rect x="28.653" y="80.629" fill="#F2F2F2" width="5.096" height="1.486"/>
					<rect x="24.573" y="76.122" fill="#F2F2F2" width="9.176" height="1.489"/>
					<rect x="28.653" y="71.645" fill="#F2F2F2" width="5.096" height="1.495"/>
					<rect x="24.573" y="67.14" fill="#F2F2F2" width="9.176" height="1.494"/>
					<rect x="28.653" y="62.662" fill="#F2F2F2" width="5.096" height="1.494"/>
					<rect x="24.573" y="58.163" fill="#F2F2F2" width="9.176" height="1.488"/>
					<rect x="28.653" y="53.709" fill="#F2F2F2" width="5.096" height="1.489"/>
					<rect x="24.573" y="49.218" fill="#F2F2F2" width="9.176" height="1.505"/>
					<rect x="28.653" y="44.728" fill="#F2F2F2" width="5.096" height="1.49"/>
				</g>
			</g>
			<g>
				<g id="XMLID_4_">
					<g>
						<polygon fill="#FFFFFF" points="183.433,55.586 180.231,47.627 175.608,47.627 172.404,55.586 						"/>
						<polygon fill="#242D3C" points="180.231,47.627 177.923,41.893 175.608,47.627 						"/>
					</g>
				</g>
				<g id="XMLID_3_">
					<g>
						<polygon fill="#242D3C" points="183.433,147.58 183.433,55.586 182.001,53.984 180.371,55.586 180.371,147.58 						"/>
						<polygon fill="#3E4959" points="180.371,147.58 180.371,55.586 177.77,53.631 175.461,55.586 175.461,147.58 						"/>
						<polygon fill="#242D3C" points="175.461,147.58 175.461,55.586 173.778,54.062 172.404,55.586 172.404,147.58 						"/>
					</g>
				</g>
				<g id="XMLID_2_">
					<g>
						<rect x="180.371" y="147.58" fill="#CCCBCA" width="3.062" height="4.53"/>
						<rect x="175.461" y="147.58" fill="#D9D8D7" width="4.911" height="4.53"/>
						<rect x="172.404" y="147.58" fill="#CCCBCA" width="3.057" height="4.53"/>
					</g>
				</g>
				<g>
					<path fill="#3E4959" d="M183.433,156.546c0,1.213-0.475,2.435-1.438,3.343c-0.964,0.923-2.209,1.383-3.449,1.383h-1.263
						c-1.237,0-2.484-0.46-3.448-1.383c-0.966-0.908-1.438-2.132-1.438-3.343v-4.438h11.036V156.546L183.433,156.546z"/>
				</g>
			</g>
		</g>
	</g>
</g>
</svg>
