<?xml version="1.0" encoding="utf-8"?>
<!-- Generator: Adobe Illustrator 16.0.0, SVG Export Plug-In . SVG Version: 6.00 Build 0)  -->
<!DOCTYPE svg PUBLIC "-//W3C//DTD SVG 1.1//EN" "http://www.w3.org/Graphics/SVG/1.1/DTD/svg11.dtd">
<svg version="1.1" id="Layer_1" xmlns="http://www.w3.org/2000/svg" xmlns:xlink="http://www.w3.org/1999/xlink" x="0px" y="0px"
	 width="200px" height="200px" viewBox="0 0 200 200" enable-background="new 0 0 200 200" xml:space="preserve">
<g>
	<circle fill="#31D9DE" cx="100" cy="100" r="100"/>
	<g>
		<g>
			<g>
				<rect x="28.44" y="41.2" fill="#3E4959" width="145.112" height="117.6"/>
				<rect x="34.57" y="51.88" fill="#FFFFFF" width="132.858" height="100.813"/>
				<g>
					<g>
						<rect x="39.286" y="57.23" fill="#FF6D3B" width="42.656" height="4.586"/>
					</g>
					<g>
						<rect x="39.286" y="64.874" fill="#242D3C" width="65.116" height="4.635"/>
					</g>
					<g>
						<rect x="39.286" y="72.031" fill="#FFD85C" width="45.72" height="4.585"/>
					</g>
					<g>
						<rect x="92.962" y="72.031" fill="#242D3C" width="45.782" height="4.585"/>
					</g>
					<g>
						<rect x="146.658" y="72.031" fill="#31D9DE" width="17.004" height="4.585"/>
					</g>
					<g>
						<rect x="60.714" y="81.262" fill="#242D3C" width="45.779" height="4.59"/>
					</g>
					<g>
						<rect x="114.451" y="81.262" fill="#31D9DE" width="45.777" height="4.59"/>
					</g>
					<g>
						<rect x="143.066" y="91.613" fill="#242D3C" width="17.026" height="4.572"/>
					</g>
					<g>
						<rect x="80.375" y="91.613" fill="#FFD85C" width="45.802" height="4.572"/>
					</g>
					<g>
						<rect x="39.286" y="106.07" fill="#FF6D3B" width="42.656" height="4.576"/>
					</g>
					<g>
						<rect x="39.286" y="113.713" fill="#242D3C" width="65.116" height="4.624"/>
					</g>
					<g>
						<rect x="39.286" y="120.865" fill="#FFD85C" width="45.72" height="4.589"/>
					</g>
					<g>
						<rect x="92.962" y="120.865" fill="#31D9DE" width="45.782" height="4.589"/>
					</g>
					<g>
						<rect x="60.714" y="130.068" fill="#242D3C" width="45.779" height="4.603"/>
					</g>
					<g>
						<rect x="114.451" y="130.068" fill="#242D3C" width="45.777" height="4.603"/>
					</g>
					<g>
						<rect x="143.066" y="140.443" fill="#31D9DE" width="17.026" height="4.634"/>
					</g>
					<g>
						<rect x="80.375" y="140.443" fill="#FFD85C" width="45.802" height="4.634"/>
					</g>
				</g>
			</g>
			<g>
				<path fill="#FFBB33" d="M35.64,168.445c0,1.934-0.543,3.865-1.633,5.342c-1.087,1.475-2.515,2.213-3.94,2.213h-3.25
					c-1.426,0-2.854-0.738-3.943-2.213c-1.088-1.477-1.633-3.408-1.633-5.342V46.659h14.4V168.445z"/>
				<polygon fill="#242D3C" points="48.197,46.659 0.572,46.659 0.572,24 48.197,24 66.973,29.948 66.973,41.657 				"/>
			</g>
			<g>
				<g>
					<g>
						<path fill="#FF6D3B" d="M185.027,106.146h-28.799v8.012h1.189c0.731,0,1.463,0.33,2.021,0.988
							c0.558,0.66,0.836,1.521,0.836,2.387v50.027c0,2.16,0.696,4.318,2.091,5.969c1.396,1.646,3.222,2.471,5.05,2.471h6.428
							c1.827,0,3.653-0.824,5.047-2.471c1.396-1.648,2.096-3.809,2.096-5.969v-50.027c0-0.863,0.278-1.727,0.836-2.387
							c0.557-0.658,1.289-0.988,2.018-0.988h1.193v-8.012H185.027z"/>
						<path fill="#E64717" d="M174.316,122.914c0-0.864-0.299-1.729-0.896-2.387c-0.599-0.658-1.381-0.987-2.164-0.987h-1.021
							c-0.782,0-1.565,0.329-2.164,0.987c-0.601,0.658-0.896,1.521-0.896,2.387v42.191c0,0.863,0.299,1.729,0.896,2.387
							s1.382,0.99,2.164,0.99h1.021c0.783,0,1.565-0.332,2.164-0.99c0.597-0.658,0.896-1.521,0.896-2.387V122.914z"/>
						<path fill="#E64717" d="M178.963,120.527c-0.559,0.658-0.84,1.521-0.84,2.387v42.191c0,0.863,0.281,1.729,0.84,2.387
							s1.289,0.99,2.02,0.99V119.54C180.252,119.54,179.521,119.869,178.963,120.527z"/>
						<path fill="#E64717" d="M162.292,120.527c0.558,0.658,0.839,1.521,0.839,2.387v42.191c0,0.863-0.281,1.729-0.839,2.387
							c-0.556,0.658-1.286,0.99-2.018,0.99V119.54C161.006,119.54,161.736,119.869,162.292,120.527z"/>
					</g>
					<polygon fill="#B0B0B0" points="173.518,44.273 167.978,44.273 167.178,106.279 174.316,106.279 					"/>
					<polygon fill="#B0B0B0" points="173.428,24 168.066,24 164.868,39.456 167.978,44.273 173.518,44.273 176.627,39.456 					"/>
				</g>
				<rect x="170.029" y="24" fill="#3E4959" width="1.436" height="16.339"/>
			</g>
		</g>
	</g>
</g>
</svg>
