<?xml version="1.0" encoding="utf-8"?>
<!-- Generator: Adobe Illustrator 16.0.0, SVG Export Plug-In . SVG Version: 6.00 Build 0)  -->
<!DOCTYPE svg PUBLIC "-//W3C//DTD SVG 1.1//EN" "http://www.w3.org/Graphics/SVG/1.1/DTD/svg11.dtd">
<svg version="1.1" id="Layer_1" xmlns="http://www.w3.org/2000/svg" xmlns:xlink="http://www.w3.org/1999/xlink" x="0px" y="0px"
	 width="200px" height="200px" viewBox="0 0 200 200" enable-background="new 0 0 200 200" xml:space="preserve">
<g>
	<circle fill="#FF6D3B" cx="100" cy="100" r="100"/>
	<g>
		<g>
			<polygon fill="#3E4959" points="54.663,60.446 50.849,64.24 45.423,58.822 49.237,55.008 			"/>
			<rect x="94.534" y="32.929" fill="#3E4959" width="10.93" height="9.604"/>
			<g>
				<g>
					<g>
						<rect x="72.812" y="105.982" fill="#F15424" width="20.332" height="7.241"/>
						<path fill="#242D3C" d="M167.93,109.647c0,37.467-30.403,68.753-67.93,68.753s-67.93-31.286-67.93-68.753
							c0-37.568,30.404-67.986,67.93-67.986S167.93,72.079,167.93,109.647z"/>
						<path fill="#FFFFFF" d="M154.517,109.813c0,30.038-24.41,54.473-54.515,54.473s-54.513-24.433-54.513-54.473
							c0-30.173,24.408-54.581,54.513-54.581S154.517,79.639,154.517,109.813z"/>
						<g>
							<rect x="96.386" y="62.329" fill="#242D3C" width="7.229" height="7.223"/>
							<polygon fill="#242D3C" points="74.331,78.764 69.172,83.915 64.032,78.764 69.172,73.612 							"/>
							<rect x="52.729" y="105.984" fill="#242D3C" width="7.24" height="7.239"/>
							<polygon fill="#242D3C" points="69.172,135.395 74.331,140.422 69.172,145.545 64.034,140.422 							"/>
							<rect x="96.386" y="149.602" fill="#242D3C" width="7.229" height="7.264"/>
							<polygon fill="#242D3C" points="125.736,140.422 130.88,135.395 135.968,140.422 130.881,145.545 							"/>
							<rect x="140.029" y="105.984" fill="#242D3C" width="7.25" height="7.236"/>
							<polygon fill="#242D3C" points="130.881,83.915 125.737,78.764 130.881,73.612 135.968,78.764 							"/>
						</g>
						<rect x="63.732" y="105.982" fill="#FFBB33" width="32.308" height="7.241"/>
						<path fill="#242D3C" d="M107.248,109.65c0,3.945-3.253,7.263-7.248,7.263c-3.997,0-7.25-3.321-7.25-7.263
							c0-4.044,3.253-7.222,7.25-7.222C103.995,102.429,107.248,105.606,107.248,109.65z"/>
						<path fill="#FFBB33" d="M104.314,109.65c0,2.415-1.914,4.277-4.314,4.277c-2.396,0-4.317-1.862-4.317-4.277
							c0-2.414,1.922-4.402,4.317-4.402C102.4,105.248,104.314,107.236,104.314,109.65z"/>
						<rect x="96.386" y="73.658" fill="#242D3C" width="7.229" height="31.59"/>
						<path fill="#31D9DE" d="M105.264,73.818v28.633c2.191,1.592,3.629,4.179,3.629,7.168c0,4.817-3.985,8.919-8.893,8.919
							c-2.94,0-5.549-1.487-7.174-3.698H63.931c2.52,17.577,17.723,31.085,36.129,31.085c20.153,0,36.501-16.225,36.501-36.246
							C136.561,91.427,122.955,76.319,105.264,73.818z"/>
						<path fill="#F15424" d="M92.753,104.304c0.534-0.704,1.178-1.348,1.894-1.863V73.657
							c-16.683,0.814-30.067,14.095-30.913,30.646H92.753z"/>
						<path fill="#D1D1D1" d="M136.451,69.22c8.715,9.668,14.018,22.49,14.018,36.559c0,30.035-24.411,54.448-54.514,54.448
							c-14.024,0-26.81-5.287-36.468-13.994c9.974,11.065,24.431,18.053,40.515,18.053c30.104,0,54.515-24.435,54.515-54.473
							C154.517,93.694,147.541,79.202,136.451,69.22z"/>
					</g>
				</g>
			</g>
			<path fill="#242D3C" d="M80.99,25.636c0-1.017,0.394-2.057,1.179-2.844c0.786-0.787,1.828-1.191,2.858-1.191h29.947
				c1.028,0,2.071,0.405,2.856,1.191c0.786,0.786,1.18,1.827,1.18,2.844v3.256c0,1.019-0.394,2.059-1.18,2.847
				c-0.785,0.787-1.828,1.19-2.856,1.19H85.027c-1.031,0-2.071-0.405-2.858-1.19c-0.786-0.788-1.179-1.827-1.179-2.847V25.636z"/>
			<path fill="#242D3C" d="M37.604,60.929c-0.729-0.737-1.18-1.755-1.18-2.869c0-1.109,0.451-2.131,1.18-2.862l8.014-8.009
				C46.344,46.452,47.353,46,48.475,46s2.131,0.453,2.856,1.189l0,0c0.738,0.739,1.192,1.746,1.192,2.87
				c0,1.109-0.455,2.13-1.192,2.849l-8.001,8.021c-0.738,0.738-1.747,1.182-2.869,1.182C39.351,62.11,38.342,61.667,37.604,60.929
				L37.604,60.929z"/>
		</g>
	</g>
</g>
</svg>
