<?xml version="1.0" encoding="utf-8"?>
<!-- Generator: Adobe Illustrator 16.0.0, SVG Export Plug-In . SVG Version: 6.00 Build 0)  -->
<!DOCTYPE svg PUBLIC "-//W3C//DTD SVG 1.1//EN" "http://www.w3.org/Graphics/SVG/1.1/DTD/svg11.dtd">
<svg version="1.1" id="Layer_1" xmlns="http://www.w3.org/2000/svg" xmlns:xlink="http://www.w3.org/1999/xlink" x="0px" y="0px"
	 width="200px" height="200px" viewBox="0 0 200 200" enable-background="new 0 0 200 200" xml:space="preserve">
<g>
	<circle fill="#242D3C" cx="100" cy="100" r="100"/>
	<g>
		<g>
			<rect x="25.803" y="24" fill="#FF6D3B" width="76" height="76"/>
			<rect x="101.803" y="24" fill="#FFBB33" width="76" height="76"/>
			<rect x="25.803" y="100" fill="#FFBB33" width="76" height="76"/>
			<rect x="101.803" y="100" fill="#FF6D3B" width="76" height="76"/>
		</g>
		<g>
			<g>
				<path fill="#242D3C" d="M164.603,105.764V94.241l-19.508-4.497c-1.096-4.713-2.921-9.159-5.369-13.18l10.531-16.914
					l-8.104-8.105l-16.68,10.429c-4.098-2.621-8.683-4.621-13.528-5.791L107.563,37.2H96.042l-4.297,18.68
					c-5.125,1.087-9.913,3.047-14.216,5.723L61.452,51.545l-8.103,8.104l9.938,15.961c-2.804,4.362-4.87,9.216-6.021,14.437
					l-18.264,4.191v11.522l18.295,4.197c1.195,5.166,3.268,10.019,6.037,14.33l-9.988,16.062l8.104,8.104l16.225-10.155
					c4.26,2.636,8.991,4.529,14.029,5.617l4.336,18.884h11.521l4.413-19.157c4.796-1.193,9.3-3.144,13.356-5.719l16.819,10.53
					l8.104-8.104l-10.571-17.01c2.442-3.977,4.271-8.386,5.369-13.07L164.603,105.764z M101.203,123.928
					c-13.263,0-24.03-10.763-24.03-24.028c0-13.267,10.767-24.022,24.03-24.022c13.269,0,24.031,10.755,24.031,24.022
					C125.234,113.167,114.472,123.928,101.203,123.928z"/>
			</g>
			<path fill="#1F2733" d="M164.603,105.764V94.241l-19.508-4.497c-1.096-4.713-2.921-9.159-5.369-13.18l10.531-16.914l-4.173-4.173
				l-27.668,27.667c4.217,4.328,6.818,10.237,6.818,16.755c0,13.268-10.763,24.028-24.03,24.028c-6.515,0-12.424-2.602-16.755-6.816
				L57.28,144.28l4.17,4.172l16.225-10.155c4.26,2.635,8.99,4.529,14.029,5.617l4.336,18.886h11.521l4.413-19.157
				c4.796-1.193,9.3-3.144,13.356-5.719l16.819,10.53l8.104-8.104l-10.571-17.01c2.442-3.977,4.271-8.386,5.369-13.07
				L164.603,105.764z"/>
		</g>
	</g>
</g>
</svg>
