<?xml version="1.0" encoding="utf-8"?>
<!-- Generator: Adobe Illustrator 16.0.0, SVG Export Plug-In . SVG Version: 6.00 Build 0)  -->
<!DOCTYPE svg PUBLIC "-//W3C//DTD SVG 1.1//EN" "http://www.w3.org/Graphics/SVG/1.1/DTD/svg11.dtd">
<svg version="1.1" id="Layer_1" xmlns="http://www.w3.org/2000/svg" xmlns:xlink="http://www.w3.org/1999/xlink" x="0px" y="0px"
	 width="200px" height="200px" viewBox="0 0 200 200" enable-background="new 0 0 200 200" xml:space="preserve">
<g>
	<circle fill="#31D9DE" cx="100" cy="100" r="100"/>
	<g>
		<g>
			<path fill="#E6E5E5" d="M121.486,53.258c0,9.526-20.32,17.256-45.389,17.256c-25.066,0-45.388-7.73-45.388-17.256
				C30.709,43.724,51.031,36,76.098,36C101.166,36,121.486,43.724,121.486,53.258z"/>
			<path fill="#CCCBCA" d="M30.709,113.472c0,9.533,20.322,17.257,45.388,17.257c25.068,0,45.389-7.724,45.389-17.257V86.53
				c0,12.528-20.32,18.437-45.389,18.437c-25.066,0-45.388-5.909-45.388-18.437V113.472z"/>
			<path fill="#E6E5E5" d="M121.486,86.53c0,12.528-20.32,18.437-45.389,18.437c-25.066,0-45.388-5.909-45.388-18.437v-6.324
				c0,9.528,20.322,17.258,45.388,17.258c25.068,0,45.389-7.729,45.389-17.258V86.53z"/>
			<path fill="#CCCBCA" d="M30.709,53.258c0,9.526,20.322,17.258,45.388,17.258c25.068,0,45.389-7.731,45.389-17.258v26.948
				c0,9.527-20.32,17.258-45.389,17.258c-25.066,0-45.388-7.731-45.388-17.258V53.258z"/>
			<path fill="#CCCBCA" d="M30.709,146.742c0,9.536,20.322,17.258,45.388,17.258c25.068,0,45.389-7.722,45.389-17.258v-26.948
				c0,12.529-20.32,18.438-45.389,18.438c-25.066,0-45.388-5.908-45.388-18.438V146.742z"/>
			<path fill="#E6E5E5" d="M121.486,119.794c0,12.529-20.32,18.438-45.389,18.438c-25.066,0-45.388-5.908-45.388-18.438v-6.322
				c0,9.533,20.322,17.257,45.388,17.257c25.068,0,45.389-7.724,45.389-17.257V119.794z"/>
		</g>
		<g>
			
				<rect x="127.847" y="31.346" transform="matrix(0.9063 -0.4226 0.4226 0.9063 -29.9289 65.0967)" fill="#FFBB33" width="8" height="137.4"/>
			
				<rect x="101.727" y="41.694" transform="matrix(0.9063 -0.4226 0.4226 0.9063 -11.303 50.805)" fill="#242D3C" width="14.4" height="18.4"/>
			<path fill="#242D3C" d="M175.813,43.22c-22.49-9.629-47.901-7.897-69.47,2.133C84.796,55.428,67.135,73.78,60.055,97.198
				l1.228,2.959c15.189-20.456,31.309-35.194,49.981-44.253c18.941-8.48,40.592-11.355,66.027-9.842L175.813,43.22z"/>
		</g>
	</g>
</g>
</svg>
