<?xml version="1.0" encoding="utf-8"?>
<!-- Generator: Adobe Illustrator 16.0.0, SVG Export Plug-In . SVG Version: 6.00 Build 0)  -->
<!DOCTYPE svg PUBLIC "-//W3C//DTD SVG 1.1//EN" "http://www.w3.org/Graphics/SVG/1.1/DTD/svg11.dtd">
<svg version="1.1" id="Layer_1" xmlns="http://www.w3.org/2000/svg" xmlns:xlink="http://www.w3.org/1999/xlink" x="0px" y="0px"
	 width="200px" height="200px" viewBox="0 0 200 200" enable-background="new 0 0 200 200" xml:space="preserve">
<g>
	<circle fill="#FF6D3B" cx="100" cy="100" r="100"/>
	<g>
		<path fill="#242D3C" d="M191.629,33.993H8.371v133.146h75.251c4.424,3.537,10.104,5.661,16.379,5.661
			c6.288,0,11.979-2.124,16.359-5.661h75.268V33.993z"/>
		<g>
			<path fill="#D9D8D7" d="M184.479,27.214l-0.002,123.141h-71.929c-3.199,0-6.433,1.292-8.831,4.079
				c-2.452,2.676-3.715,6.263-3.715,7.215l89.32,0.021V41.146L184.479,27.214z"/>
			<path fill="#D9D8D7" d="M96.362,154.434c-2.476-2.787-5.69-4.079-8.881-4.079H15.531V27.214l-4.828,13.932v120.503h89.299
				C100.002,160.696,98.756,157.109,96.362,154.434z"/>
		</g>
		<g>
			<path fill="#FFFFFF" d="M112.548,150.354h71.929l0.002-123.141V27.2H112.95c-3.249,0-6.569,1.395-9.156,4.089
				c-2.502,2.744-3.792,6.313-3.792,9.856v120.503c0-0.952,1.263-4.539,3.715-7.215
				C106.115,151.646,109.349,150.354,112.548,150.354z"/>
			<path fill="#E6E5E5" d="M87.068,27.2h-0.011v123.154h0.423c3.191,0,6.405,1.292,8.881,4.079c2.394,2.676,3.64,6.263,3.64,7.215
				V41.146c0-3.545-1.285-7.113-3.765-9.856C93.651,28.6,90.398,27.203,87.068,27.2z"/>
			<rect x="15.528" y="27.214" fill="#FFFFFF" width="71.952" height="123.141"/>
		</g>
		<g>
			<rect x="20.9" y="37.06" fill="#CCCBCA" width="61.292" height="5.237"/>
			<rect x="20.9" y="49.378" fill="#CCCBCA" width="61.292" height="5.187"/>
			<rect x="20.9" y="61.63" fill="#CCCBCA" width="61.292" height="5.244"/>
			<rect x="20.9" y="73.88" fill="#CCCBCA" width="61.292" height="5.253"/>
			<rect x="20.9" y="86.139" fill="#CCCBCA" width="61.292" height="5.264"/>
			<rect x="20.9" y="98.413" fill="#CCCBCA" width="61.292" height="5.236"/>
			<rect x="20.9" y="110.704" fill="#CCCBCA" width="61.292" height="5.211"/>
			<rect x="20.9" y="123.004" fill="#CCCBCA" width="61.292" height="5.197"/>
			<rect x="20.9" y="135.215" fill="#CCCBCA" width="61.292" height="5.291"/>
		</g>
		<polygon fill="#242D3C" points="77.689,110.704 82.596,101.08 87.48,110.704 87.48,27.214 77.689,27.214 		"/>
	</g>
	<g>
		<rect x="111.745" y="138.818" fill="#242D3C" width="57.693" height="7.926"/>
		<path fill="#242D3C" d="M120.07,138.818h41.041v-0.33c0-1.724-0.66-3.473-2-4.791c-1.321-1.32-3.049-1.98-4.795-1.98h-27.468
			c-1.726,0-3.474,0.66-4.792,1.98c-1.32,1.318-1.986,3.067-1.986,4.791V138.818z"/>
		<path fill="#CCCBCA" d="M134.92,131.717h11.308v-23.762h-5.662c-11.227,0-20.363-9.139-20.363-20.362
			c0-11.225,9.137-20.362,20.363-20.362V55.91c-17.462,0-31.666,14.211-31.666,31.683c0,15.537,11.242,28.494,26.021,31.171V131.717
			z"/>
		<path fill="#242D3C" d="M128.402,57.276c0,3.125,1.199,6.232,3.574,8.609c2.373,2.375,5.482,3.554,8.589,3.554h12.162V45.113
			h-12.162c-3.106,0-6.216,1.2-8.589,3.577C129.602,51.062,128.402,54.17,128.402,57.276L128.402,57.276z"/>
		<rect x="152.728" y="45.113" fill="#242D3C" width="18.227" height="46.114"/>
		<rect x="156.636" y="91.228" fill="#CCCBCA" width="11.324" height="6.773"/>
		<rect x="152.728" y="38.34" fill="#CCCBCA" width="18.227" height="6.773"/>
		<rect x="156.18" y="31.544" fill="#242D3C" width="11.324" height="6.795"/>
		<path fill="#CCCBCA" d="M135.479,58.171c0,2.812,2.275,5.095,5.087,5.095s5.095-2.283,5.095-5.095
			c0-2.812-2.283-5.084-5.095-5.084S135.479,55.359,135.479,58.171z"/>
		<rect x="146.228" y="111.354" fill="#242D3C" width="32.598" height="5.039"/>
		<path fill="#242D3C" d="M137.59,113.863c0,1.667,1.343,3.013,2.994,3.013c1.65,0,2.994-1.346,2.994-3.013
			c0-1.651-1.344-2.994-2.994-2.994C138.933,110.869,137.59,112.212,137.59,113.863z"/>
		<rect x="153.322" y="30.928" fill="#242D3C" width="17.036" height="1.233"/>
	</g>
</g>
</svg>
