<?xml version="1.0" encoding="utf-8"?>
<!-- Generator: Adobe Illustrator 16.0.0, SVG Export Plug-In . SVG Version: 6.00 Build 0)  -->
<!DOCTYPE svg PUBLIC "-//W3C//DTD SVG 1.1//EN" "http://www.w3.org/Graphics/SVG/1.1/DTD/svg11.dtd">
<svg version="1.1" id="Layer_1" xmlns="http://www.w3.org/2000/svg" xmlns:xlink="http://www.w3.org/1999/xlink" x="0px" y="0px"
	 width="200px" height="200px" viewBox="0 0 200 200" enable-background="new 0 0 200 200" xml:space="preserve">
<g>
	<circle fill="#31D9DE" cx="100" cy="100" r="100"/>
	<g>
		<g>
			<path fill="#242D3C" d="M180.141,54.081c0-3.077-1.052-6.066-3.396-8.411c-2.349-2.342-5.312-3.425-8.391-3.425H31.996
				c-3.079,0-6.279,1.083-8.63,3.425c-2.353,2.345-3.647,5.334-3.647,8.411v90.833h160.422V54.081z"/>
			<rect x="29.347" y="51.866" fill="#FFFFFF" width="141.163" height="83.423"/>
			<g>
				<path fill="#E0DFDE" d="M179.747,144.361H193.2c0,2.302-0.577,4.62-1.724,6.664H8.53c-1.154-2.044-1.73-4.362-1.73-6.664h13.424
					h66.625v2.747h26.273v-2.747H179.747z"/>
				<path fill="#CCCBCA" d="M8.53,151.025h182.947c-0.576,1.011-1.273,1.967-2.053,2.832c-2.55,2.596-5.866,3.898-9.121,3.898
					H19.697c-3.307,0-6.594-1.303-9.121-3.898C9.763,152.992,9.065,152.036,8.53,151.025z"/>
				<rect x="86.849" y="144.361" fill="#3E4959" width="26.273" height="2.747"/>
			</g>
		</g>
		<g>
			<g>
				<g>
					<g>
						<rect x="56.409" y="110.621" fill="#D9D8D7" width="80.914" height="2.283"/>
						<rect x="54.949" y="112.904" fill="#FFFFFF" width="82.374" height="2.313"/>
					</g>
					<g>
						<rect x="53.253" y="115.218" fill="#D9D8D7" width="84.07" height="2.304"/>
						<rect x="53.253" y="117.521" fill="#FFFFFF" width="84.07" height="2.303"/>
					</g>
					<g>
						<rect x="53.253" y="119.824" fill="#D9D8D7" width="84.07" height="2.281"/>
						<rect x="53.253" y="122.105" fill="#FFFFFF" width="84.07" height="2.281"/>
					</g>
					<g>
						<rect x="55.991" y="124.387" fill="#D9D8D7" width="81.332" height="2.247"/>
						<rect x="57.028" y="126.634" fill="#FFFFFF" width="80.295" height="1.209"/>
					</g>
					<path fill="#242D3C" d="M56.737,113.061c1.621-1.569,3.751-2.439,6.026-2.439h74.62v-2.68H62.492
						c-2.815,0-5.601,1.008-7.744,3.19c-2.174,2.159-3.22,4.908-3.22,7.786v0.252c0,2.834,1.046,5.597,3.22,7.785
						c2.143,2.158,4.929,3.25,7.744,3.25h74.891v-2.798h-74.62c-2.274,0-4.405-0.861-6.026-2.424c-1.6-1.539-2.489-3.56-2.489-5.813
						v-0.252C54.248,116.697,55.137,114.59,56.737,113.061z"/>
				</g>
				<g>
					<g>
						<rect x="57.199" y="69.374" fill="#D9D8D7" width="70.688" height="1.913"/>
						<rect x="55.908" y="71.287" fill="#FFFFFF" width="71.98" height="1.91"/>
					</g>
					<g>
						<rect x="54.44" y="73.196" fill="#D9D8D7" width="73.448" height="1.926"/>
						<rect x="54.44" y="75.123" fill="#FFFFFF" width="73.448" height="1.869"/>
					</g>
					<g>
						<rect x="54.44" y="76.991" fill="#D9D8D7" width="73.448" height="1.936"/>
						<rect x="54.44" y="78.927" fill="#FFFFFF" width="73.448" height="1.911"/>
					</g>
					<g>
						<rect x="56.827" y="80.838" fill="#D9D8D7" width="71.061" height="1.872"/>
						<rect x="57.736" y="82.71" fill="#FFFFFF" width="70.152" height="0.989"/>
					</g>
					<path fill="#14B5BA" d="M57.472,71.379c1.403-1.298,3.292-2.005,5.28-2.005h65.196v-2.258H62.499
						c-2.43,0-4.897,0.867-6.771,2.631c-1.889,1.813-2.807,4.133-2.807,6.503v0.27c0,2.305,0.918,4.647,2.807,6.45
						c1.874,1.815,4.341,2.68,6.771,2.68h65.449v-2.302H62.751c-1.988,0-3.876-0.719-5.28-1.987
						c-1.383-1.278-2.159-3.016-2.159-4.841v-0.27C55.313,74.419,56.089,72.684,57.472,71.379z"/>
				</g>
				<g>
					<g>
						<rect x="62.563" y="88.366" fill="#D9D8D7" width="80.868" height="2.277"/>
						<rect x="62.563" y="90.643" fill="#FFFFFF" width="82.322" height="2.334"/>
					</g>
					<g>
						<rect x="62.563" y="92.978" fill="#D9D8D7" width="84.021" height="2.269"/>
						<rect x="62.563" y="95.246" fill="#FFFFFF" width="84.021" height="2.322"/>
					</g>
					<g>
						<rect x="62.563" y="97.568" fill="#D9D8D7" width="84.021" height="2.277"/>
						<rect x="62.563" y="99.845" fill="#FFFFFF" width="84.021" height="2.273"/>
					</g>
					<g>
						<rect x="62.563" y="102.118" fill="#D9D8D7" width="81.325" height="2.276"/>
						<rect x="62.563" y="104.395" fill="#FFFFFF" width="80.268" height="1.182"/>
					</g>
					<path fill="#F15424" d="M143.131,90.812c-1.62-1.567-3.789-2.445-6.059-2.445h-74.58v-2.715h74.891
						c2.766,0,5.611,1.042,7.727,3.194c2.146,2.195,3.219,4.948,3.219,7.818v0.261c0,2.828-1.072,5.592-3.219,7.781
						c-2.115,2.153-4.961,3.236-7.727,3.236H62.492v-2.771h74.58c2.27,0,4.438-0.877,6.059-2.453c1.605-1.513,2.49-3.56,2.49-5.792
						v-0.261C145.621,94.424,144.736,92.327,143.131,90.812z"/>
				</g>
			</g>
			<rect x="29.347" y="51.866" fill="#CCCBCA" width="141.163" height="10.167"/>
			<ellipse fill="#FFFFFF" cx="33.323" cy="56.949" rx="1.136" ry="1.206"/>
			<ellipse fill="#FFFFFF" cx="36.732" cy="56.949" rx="1.136" ry="1.206"/>
			<ellipse fill="#FFFFFF" cx="40.141" cy="56.949" rx="1.136" ry="1.206"/>
			<rect x="150.51" y="72.407" fill="#CCCBCA" width="17.6" height="54.399"/>
			<rect x="43.105" y="54.538" fill="#FFFFFF" width="113.646" height="4.823"/>
			<polygon fill="#242D3C" points="162.728,108.961 133.929,96.868 146.02,125.668 148.811,115.146 158.263,124.599 
				161.659,121.201 152.209,111.751 			"/>
			<rect x="31.747" y="72.407" fill="#CCCBCA" width="17.6" height="54.399"/>
		</g>
	</g>
</g>
</svg>
