<?xml version="1.0" encoding="utf-8"?>
<!-- Generator: Adobe Illustrator 16.0.0, SVG Export Plug-In . SVG Version: 6.00 Build 0)  -->
<!DOCTYPE svg PUBLIC "-//W3C//DTD SVG 1.1//EN" "http://www.w3.org/Graphics/SVG/1.1/DTD/svg11.dtd">
<svg version="1.1" id="Layer_1" xmlns="http://www.w3.org/2000/svg" xmlns:xlink="http://www.w3.org/1999/xlink" x="0px" y="0px"
	 width="200px" height="200px" viewBox="0 0 200 200" enable-background="new 0 0 200 200" xml:space="preserve">
<g>
	<circle fill="#242D3C" cx="100" cy="100" r="100"/>
	<g>
		<g>
			<polygon fill="#FF6D3B" points="169.301,113.9 89.301,113.9 44.046,159.154 124.046,159.154 			"/>
			<polygon fill="#E36134" points="161.301,113.9 120.046,155.154 48.046,155.154 44.046,159.154 124.046,159.154 169.301,113.9 			
				"/>
			<rect x="89.301" y="33.9" fill="#FFBB33" width="80" height="80"/>
			<polygon fill="#31D9DE" points="44.046,159.154 89.301,113.9 89.301,33.9 44.046,79.155 			"/>
			<polygon fill="#F0B030" points="89.301,33.9 89.301,41.9 161.301,41.9 161.301,113.9 169.301,113.9 169.301,33.9 			"/>
			<polygon fill="#18BFC4" points="48.046,83.155 89.301,41.9 89.301,33.9 44.046,79.155 44.046,159.154 48.046,155.154 			"/>
		</g>
		<polygon fill="#FFFFFF" points="179.342,108.475 174.735,108.475 178.563,112.3 90.901,112.3 90.901,24.638 94.726,28.464 
			94.726,23.858 89.301,18.433 83.876,23.858 83.876,28.464 87.701,24.638 87.701,113.237 37.688,163.248 37.69,157.838 
			34.434,161.096 34.434,168.768 42.105,168.768 45.362,165.51 39.951,165.511 89.963,115.5 178.563,115.5 174.735,119.325 
			179.342,119.325 184.767,113.9 		"/>
	</g>
</g>
</svg>
