<?xml version="1.0" encoding="utf-8"?>
<!-- Generator: Adobe Illustrator 16.0.0, SVG Export Plug-In . SVG Version: 6.00 Build 0)  -->
<!DOCTYPE svg PUBLIC "-//W3C//DTD SVG 1.1//EN" "http://www.w3.org/Graphics/SVG/1.1/DTD/svg11.dtd">
<svg version="1.1" id="Layer_1" xmlns="http://www.w3.org/2000/svg" xmlns:xlink="http://www.w3.org/1999/xlink" x="0px" y="0px"
	 width="200px" height="200px" viewBox="0 0 200 200" enable-background="new 0 0 200 200" xml:space="preserve">
<g>
	<circle fill="#FFBB33" cx="100" cy="100" r="100"/>
	<g>
		<g>
			<rect x="95.172" y="61.739" fill="#242D3C" width="87.242" height="4.229"/>
			<path fill="#3E4959" d="M195.594,100.939c0,2.457-0.938,4.913-2.813,6.788s-4.331,2.812-6.787,2.812h-94.4
				c-2.458,0-4.914-0.937-6.789-2.812c-1.874-1.875-2.811-4.331-2.811-6.788V75.569c0-2.457,0.938-4.914,2.811-6.789
				c1.875-1.875,4.331-2.812,6.789-2.812h94.4c2.456,0,4.912,0.937,6.787,2.812s2.813,4.332,2.813,6.789V100.939z"/>
			<path fill="#3E4959" d="M195.594,149.739c0,2.457-0.938,4.913-2.813,6.788s-4.331,2.812-6.787,2.812h-94.4
				c-2.458,0-4.914-0.937-6.789-2.812c-1.874-1.875-2.811-4.331-2.811-6.788v-25.37c0-2.457,0.938-4.914,2.811-6.789
				c1.875-1.875,4.331-2.812,6.789-2.812h94.4c2.456,0,4.912,0.937,6.787,2.812s2.813,4.332,2.813,6.789V149.739z"/>
			<path fill="#3E4959" d="M195.594,52.139c0,2.457-0.938,4.913-2.813,6.788s-4.331,2.812-6.787,2.812h-94.4
				c-2.458,0-4.914-0.937-6.789-2.812c-1.874-1.875-2.811-4.331-2.811-6.788V26.769c0-2.457,0.938-4.913,2.811-6.788
				c1.875-1.875,4.331-2.812,6.789-2.812h94.4c2.456,0,4.912,0.937,6.787,2.812s2.813,4.331,2.813,6.788V52.139z"/>
			<rect x="95.172" y="110.539" fill="#242D3C" width="87.242" height="4.229"/>
			<rect x="95.172" y="159.339" fill="#242D3C" width="9.109" height="6.728"/>
			<path fill="#3E4959" d="M104.281,167.232c0,0.41-0.156,0.819-0.469,1.132s-0.722,0.469-1.131,0.469h-5.91
				c-0.41,0-0.819-0.156-1.131-0.469s-0.469-0.722-0.469-1.132v-1.166h9.109V167.232z"/>
			<rect x="173.305" y="159.339" fill="#242D3C" width="9.109" height="6.728"/>
			<path fill="#3E4959" d="M182.414,167.232c0,0.41-0.156,0.819-0.469,1.132s-0.722,0.469-1.131,0.469h-5.91
				c-0.409,0-0.818-0.156-1.131-0.469s-0.469-0.722-0.469-1.132v-1.166h9.109V167.232z"/>
			<g>
				<circle fill="#E64717" cx="154.794" cy="39.454" r="4"/>
				<circle fill="#FFBB33" cx="167.594" cy="39.454" r="4"/>
				<circle fill="#14B5BA" cx="180.394" cy="39.454" r="4"/>
			</g>
			<g>
				<circle fill="#E64717" cx="154.794" cy="88.254" r="4"/>
				<circle fill="#FFBB33" cx="167.594" cy="88.254" r="4"/>
				<circle fill="#14B5BA" cx="180.394" cy="88.254" r="4"/>
			</g>
			<g>
				<circle fill="#E64717" cx="154.794" cy="137.054" r="4"/>
				<circle fill="#FFBB33" cx="167.594" cy="137.054" r="4"/>
				<circle fill="#14B5BA" cx="180.394" cy="137.054" r="4"/>
			</g>
		</g>
		<g>
			<g>
				<path fill="#242D3C" d="M126.419,96.586c0-2.165-0.739-4.259-2.401-5.919c-1.653-1.652-3.727-2.413-5.903-2.413H22.146
					c-2.175,0-4.428,0.761-6.078,2.413c-1.653,1.661-2.569,3.754-2.569,5.919v63.935h112.92V96.586z"/>
				<rect x="20.272" y="95.027" fill="#FFFFFF" width="99.371" height="58.719"/>
				<g>
					<path fill="#E0DFDE" d="M126.143,160.131h9.464c0,1.634-0.409,3.262-1.213,4.703H5.62c-0.803-1.441-1.214-3.069-1.214-4.703
						h9.444h46.894v1.938h18.503v-1.938H126.143z"/>
					<path fill="#CCCBCA" d="M5.62,164.834h128.773c-0.399,0.699-0.901,1.383-1.44,1.981c-1.795,1.838-4.131,2.756-6.42,2.756
						H13.479c-2.331,0-4.644-0.918-6.42-2.756C6.499,166.217,6.006,165.533,5.62,164.834z"/>
					<rect x="60.744" y="160.131" fill="#3E4959" width="18.503" height="1.938"/>
				</g>
			</g>
			<g>
				<rect x="20.272" y="95.027" fill="#CCCBCA" width="99.371" height="6.746"/>
				<circle fill="#FFFFFF" cx="23.072" cy="98.4" r="0.8"/>
				<circle fill="#FFFFFF" cx="25.471" cy="98.4" r="0.799"/>
				<circle fill="#FFFFFF" cx="27.871" cy="98.4" r="0.799"/>
				<rect x="29.958" y="96.8" fill="#FFFFFF" width="80" height="3.2"/>
				<rect x="27.606" y="105.454" fill="#31D9DE" width="84.8" height="14.399"/>
				<g>
					<rect x="47.606" y="108.654" fill="#242D3C" width="44.8" height="1.6"/>
					<rect x="53.206" y="111.854" fill="#242D3C" width="33.6" height="1.601"/>
					<rect x="59.606" y="115.054" fill="#242D3C" width="20.8" height="1.601"/>
				</g>
				<rect x="27.606" y="126" fill="#CCCBCA" width="21.6" height="21.6"/>
				<rect x="90.806" y="126" fill="#CCCBCA" width="21.6" height="21.6"/>
				<rect x="59.206" y="126" fill="#CCCBCA" width="21.6" height="21.6"/>
				<circle fill="#31D9DE" cx="38.406" cy="132.8" r="4.8"/>
				<circle fill="#31D9DE" cx="70.006" cy="132.8" r="4.8"/>
				<circle fill="#31D9DE" cx="101.606" cy="132.8" r="4.8"/>
				<rect x="32.806" y="140.052" fill="#242D3C" width="11.2" height="1.6"/>
				<rect x="32.806" y="143.252" fill="#242D3C" width="11.2" height="1.6"/>
				<rect x="64.114" y="140.052" fill="#242D3C" width="11.2" height="1.6"/>
				<rect x="64.114" y="143.252" fill="#242D3C" width="11.2" height="1.6"/>
				<rect x="96.302" y="140.052" fill="#242D3C" width="11.2" height="1.6"/>
				<rect x="96.302" y="143.252" fill="#242D3C" width="11.2" height="1.6"/>
			</g>
		</g>
	</g>
</g>
</svg>
